<svg xmlns="http://www.w3.org/2000/svg" xmlns:xlink="http://www.w3.org/1999/xlink" x="0" y="0" version="1.1" viewBox="0 0 256 256" xml:space="preserve" style="enable-background:new 0 0 256 256"><style type="text/css">.st0{opacity:.3}</style><g id="Layer_2"><g><path d="M109.6,199.6L109.6,199.6L128,218l18.4-18.4C136.2,189.4,119.8,189.1,109.6,199.6z" class="st0"/><path d="M73.4,163.4l18.1,18.1c20.1-20.1,52.6-20.1,72.7,0l18.1-18.1C152.3,133.4,103.7,133.4,73.4,163.4z" class="st0"/><path d="M37.2,127.2l18.1,18.1c40.2-40.2,105.2-40.2,145.4,0l18.1-18.1C168.7,76.8,87.3,76.8,37.2,127.2z" class="st0"/><path d="M0.7,90.7l18.1,18.1c60.3-60,158.2-60,218.4,0l18.1-18.1C184.9,20.5,71.1,20.5,0.7,90.7z" class="st0"/></g></g></svg>