<svg xmlns="http://www.w3.org/2000/svg" xmlns:xlink="http://www.w3.org/1999/xlink" id="Layer_2_copy" x="0" y="0" version="1.1" viewBox="0 0 1024 1024" xml:space="preserve" style="enable-background:new 0 0 1024 1024"><metadata><?xpacket begin="﻿" id="W5M0MpCehiHzreSzNTczkc9d"?><x:xmpmeta xmlns:x="adobe:ns:meta/" x:xmptk="Adobe XMP Core 5.6-c143 79.161356, 2017/09/07-01:11:22"><rdf:RDF xmlns:rdf="http://www.w3.org/1999/02/22-rdf-syntax-ns#"><rdf:Description/></rdf:RDF></x:xmpmeta><?xpacket end="w"?></metadata><style type="text/css">.st0{fill:url(#SVGID_1_)}.st1{fill:url(#SVGID_2_)}.st2{fill:url(#SVGID_3_)}</style><g><g><linearGradient id="SVGID_1_" x1="512.306" x2="512.306" y1="131.96" y2="241.919" gradientUnits="userSpaceOnUse"><stop offset="0" style="stop-color:#99dbf9"/><stop offset=".493" style="stop-color:#8ad5f7"/><stop offset="1" style="stop-color:#85d2f5"/></linearGradient><path d="M949,257c0-28.5-23.3-51.8-51.8-51.8H399.3c-15.5,0-28.1-12.6-28.1-28.1v0c0-28.5-23.3-51.8-51.8-51.8h-192 c-28.5,0-51.8,23.3-51.8,51.8V257v42c0-24,19.6-43.6,43.6-43.6H905c24,0,43.6,19.6,43.6,43.6v117.8c0.3-2.1,0.4-4.3,0.4-6.5V257z" class="st0"/></g><linearGradient id="SVGID_2_" x1="512.091" x2="512.091" y1="264" y2="930.026" gradientUnits="userSpaceOnUse"><stop offset="0" style="stop-color:#a0ddf9"/><stop offset="1" style="stop-color:#6bc9f2"/></linearGradient><path d="M910.3,945.6H113.9c-21.1,0-38.3-17.2-38.3-38.3V298.9c0-24,19.6-43.6,43.6-43.6H905c24,0,43.6,19.6,43.6,43.6 v608.3C948.6,928.3,931.3,945.6,910.3,945.6z" class="st1"/><linearGradient id="SVGID_3_" x1="75.612" x2="948.569" y1="273.47" y2="273.47" gradientUnits="userSpaceOnUse"><stop offset="0" style="stop-color:#8ad5f7"/><stop offset=".005" style="stop-color:#8dd6f7"/><stop offset=".061" style="stop-color:#a0dcf8"/><stop offset=".131" style="stop-color:#ade1fa"/><stop offset=".229" style="stop-color:#b5e4fa"/><stop offset=".501" style="stop-color:#b7e5fa"/><stop offset=".772" style="stop-color:#b5e4fa"/><stop offset=".87" style="stop-color:#ade1fa"/><stop offset=".939" style="stop-color:#a0dcf8"/><stop offset=".995" style="stop-color:#8dd6f7"/><stop offset="1" style="stop-color:#8ad5f7"/></linearGradient><path d="M905,248H119.2c-24,0-43.6,19.6-43.6,43.6v7.4c0-24,19.6-43.6,43.6-43.6H905c24,0,43.6,19.6,43.6,43.6v-7.4 C948.6,267.6,929,248,905,248z" class="st2"/></g></svg>