<svg xmlns="http://www.w3.org/2000/svg" xmlns:xlink="http://www.w3.org/1999/xlink" id="Layer_2_copy" x="0" y="0" version="1.1" viewBox="0 0 1024 1024" xml:space="preserve" style="enable-background:new 0 0 1024 1024"><style type="text/css">.st0{fill:url(#SVGID_1_)}.st1{fill:url(#SVGID_2_)}.st2{fill:#ffce4d}</style><g><g><linearGradient id="SVGID_1_" x1="512.3" x2="512.3" y1="132.248" y2="295.487" gradientUnits="userSpaceOnUse"><stop offset="0" style="stop-color:#ffdb4d"/><stop offset="1" style="stop-color:#f5b200"/></linearGradient><path d="M949,257c0-28.5-23.3-51.8-51.8-51.8H399.3c-15.5,0-28.1-12.6-28.1-28.1l0,0c0-28.5-23.3-51.8-51.8-51.8h-192 c-28.5,0-51.8,23.3-51.8,51.8V257v42c0-24,19.6-43.6,43.6-43.6H905c24,0,43.6,19.6,43.6,43.6v117.8c0.3-2.1,0.4-4.3,0.4-6.5V257z" class="st0"/></g><linearGradient id="SVGID_2_" x1="512.1" x2="512.1" y1="273.075" y2="1531.281" gradientUnits="userSpaceOnUse"><stop offset="0" style="stop-color:#ffce4d"/><stop offset="1" style="stop-color:#f5b200"/></linearGradient><path d="M910.3,945.6H113.9c-21.1,0-38.3-17.2-38.3-38.3V298.9c0-24,19.6-43.6,43.6-43.6H905c24,0,43.6,19.6,43.6,43.6 v608.3C948.6,928.3,931.3,945.6,910.3,945.6z" class="st1"/><path d="M905,248H119.2c-24,0-43.6,19.6-43.6,43.6v7.4c0-24,19.6-43.6,43.6-43.6H905c24,0,43.6,19.6,43.6,43.6v-7.4 C948.6,267.6,929,248,905,248z" class="st2"/></g></svg>