<svg xmlns="http://www.w3.org/2000/svg" xmlns:svg="http://www.w3.org/2000/svg" id="Layer_1" x="0" y="0" version="1.1" viewBox="0 0 1024 1024" xml:space="preserve" style="enable-background:new 0 0 1024 1024"><metadata id="metadata2244"/><defs id="defs2242"><filter style="color-interpolation-filters:sRGB" id="filter2793" width="1.119" height="1.121" x="-.059" y="-.061"><feGaussianBlur id="feGaussianBlur2795" stdDeviation="10.824"/></filter></defs><style id="style2206" type="text/css">.st0{fill:url(#circle954_1_)}.st1{fill:url(#circle961_1_)}.st2{opacity:.15}.st3{fill:#fff}</style><g id="Circle"><radialGradient id="circle954_1_" cx="534.994" cy="870.857" r="954.203" gradientTransform="matrix(1 0 0 1 0 -974)" gradientUnits="userSpaceOnUse"><stop style="stop-color:#fbfafa" id="stop2208" offset="0"/><stop style="stop-color:#d5d5d5" id="stop2210" offset="1"/></radialGradient><circle id="circle954" cx="512" cy="512" r="447" class="st0"/><linearGradient id="circle961_1_" x1="512" x2="512" y1="910.093" y2="102.909" gradientTransform="matrix(1 0 0 -1 0 1026)" gradientUnits="userSpaceOnUse"><stop style="stop-color:#e160ff" id="stop2214" offset="0"/><stop style="stop-color:#c646ec" id="stop2216" offset=".285"/><stop style="stop-color:#a020d1" id="stop2218" offset=".754"/><stop style="stop-color:#9112c7" id="stop2220" offset="1"/></linearGradient><circle id="circle961" cx="512" cy="512" r="409" class="st1"/></g><g id="g2229" class="st2" style="opacity:.15;filter:url(#filter2793)"><path id="path2225" d="M 728.8,522.8 C 728.8,464.4 706,409.4 664.7,368.1 623.4,326.8 568.4,304 510,304 c -58.4,0 -113.4,22.8 -154.7,64.1 -41.3,41.3 -64.1,96.3 -64.1,154.7 0,58.4 22.8,113.4 64.1,154.7 25.9,25.9 57.1,44.5 91.2,54.8 v -30.7 c -26.2,-9.3 -50.3,-24.4 -70.5,-44.7 -35.8,-35.8 -55.5,-83.4 -55.5,-134.1 0,-50.7 19.7,-98.3 55.5,-134.1 35.8,-35.8 83.4,-55.5 134.1,-55.5 50.7,0 98.3,19.7 134.1,55.5 35.8,35.8 55.5,83.4 55.5,134.1 0,50.7 -19.7,98.3 -55.5,134.1 -20.3,20.3 -44.3,35.4 -70.5,44.7 v 30.7 C 607.8,722 639,703.4 664.9,677.5 706,636.2 728.8,581.3 728.8,522.8 Z"/><path id="path2227" d="m 652.1,522.8 c 0,-38 -14.8,-73.7 -41.6,-100.5 C 583.7,395.5 548,380.7 510,380.7 c -38,0 -73.7,14.8 -100.5,41.6 -26.8,26.8 -41.6,62.5 -41.6,100.5 0,38 14.8,73.7 41.6,100.5 11,11 23.4,19.9 36.9,26.7 V 616.1 C 416.6,595.7 397,561.5 397,522.7 c 0,-62.3 50.7,-113 113,-113 62.3,0 113,50.7 113,113 0,38.7 -19.6,73 -49.4,93.4 V 650 c 13.5,-6.8 26,-15.7 36.9,-26.7 26.8,-26.8 41.6,-62.5 41.6,-100.5 z"/></g><path id="path2231" d="M510,466.9c-25.1,0-45.5,20.4-45.5,45.5S484.9,558,510,558c25.1,0,45.5-20.4,45.5-45.5S535.1,466.9,510,466.9z" class="st3"/><g id="g2237"><path id="path2233" d="M 728.8,512.4 C 728.8,454 706,399 664.7,357.7 623.4,316.4 568.4,293.6 510,293.6 c -58.4,0 -113.4,22.8 -154.7,64.1 -41.3,41.3 -64.1,96.3 -64.1,154.7 0,58.4 22.8,113.4 64.1,154.7 25.9,25.9 57.1,44.5 91.2,54.8 v -30.7 c -26.2,-9.3 -50.3,-24.4 -70.5,-44.7 -35.8,-35.8 -55.5,-83.4 -55.5,-134.1 0,-50.7 19.7,-98.3 55.5,-134.1 35.8,-35.8 83.4,-55.5 134.1,-55.5 50.7,0 98.3,19.7 134.1,55.5 35.8,35.8 55.5,83.4 55.5,134.1 0,50.7 -19.7,98.3 -55.5,134.1 -20.3,20.3 -44.3,35.4 -70.5,44.7 v 30.7 C 607.8,711.6 639,693 664.9,667.1 706,625.8 728.8,570.9 728.8,512.4 Z" class="st3" style="fill:#fff"/><path id="path2235" d="m 652.1,512.4 c 0,-38 -14.8,-73.7 -41.6,-100.5 C 583.7,385.1 548,370.3 510,370.3 c -38,0 -73.7,14.8 -100.5,41.6 -26.8,26.8 -41.6,62.5 -41.6,100.5 0,38 14.8,73.7 41.6,100.5 11,11 23.4,19.9 36.9,26.7 V 605.7 C 416.6,585.3 397,551.1 397,512.3 c 0,-62.3 50.7,-113 113,-113 62.3,0 113,50.7 113,113 0,38.7 -19.6,73 -49.4,93.4 v 33.9 c 13.5,-6.8 26,-15.7 36.9,-26.7 26.8,-26.8 41.6,-62.5 41.6,-100.5 z" class="st3" style="fill:#fff"/></g></svg>