<svg xmlns="http://www.w3.org/2000/svg" xmlns:svg="http://www.w3.org/2000/svg" xmlns:xlink="http://www.w3.org/1999/xlink" id="Layer_1" width="1024" height="1024" x="0" style="enable-background:new 0 0 1024 1024" y="0" version="1.1" viewBox="0 0 1024 1024" xml:space="preserve"><style type="text/css">.st0{fill:#ffc108}</style><g id="_x23_ffc108ff"><path d="M371.8,105c37.4-17.7,86.7-13.7,115.9,17.5c132.3,131.4,263.5,263.8,395.7,395.2 c46.1,33.5,66.7,104.3,26.8,150.3c-69,72.5-141.3,141.9-211.6,213.2c-19.4,22.1-47.6,35-77.1,33.9c-134.2,2.4-268.2,3.6-402.3,5.7 c-62,4.7-120.4-55.4-114.1-117.2c2.2-133.5,3.3-267.1,5.8-400.6c-1.5-32.5,15.1-61.8,39.5-82.3C225.1,249.8,293.1,171,371.8,105z" class="st0"/></g></svg>