<svg xmlns="http://www.w3.org/2000/svg" xmlns:xlink="http://www.w3.org/1999/xlink" id="Layer_8" x="0" y="0" version="1.1" viewBox="0 0 1024 1024" xml:space="preserve" style="enable-background:new 0 0 1024 1024"><style type="text/css">.st0{fill:url(#SVGID_1_)}.st1{fill:url(#SVGID_2_)}.st2{fill:url(#SVGID_3_)}.st3{fill:url(#SVGID_4_)}.st4{display:none}.st5{fill:#fff;stroke:#000;stroke-miterlimit:10}.st6{fill:url(#SVGID_5_)}.st7{fill:url(#SVGID_6_)}.st8{fill:url(#SVGID_7_)}.st9{fill:url(#SVGID_8_)}.st10{fill:url(#SVGID_9_)}.st11{fill:url(#SVGID_10_)}.st12{fill:url(#SVGID_11_)}.st13{fill:url(#SVGID_12_)}.st14{fill:url(#SVGID_13_)}.st15{fill:url(#SVGID_14_)}.st16{fill:url(#SVGID_15_)}.st17{opacity:.5;fill:url(#SVGID_16_)}.st18,.st19{opacity:.5;fill:url(#SVGID_17_)}.st19{fill:url(#SVGID_18_)}.st20{fill:url(#SVGID_19_)}.st21{fill:url(#SVGID_20_)}.st22{fill:url(#SVGID_21_)}.st23{fill:url(#SVGID_22_)}.st24{fill:url(#SVGID_23_)}.st25{fill:url(#SVGID_24_)}.st26{fill:url(#SVGID_25_)}.st27{fill:url(#SVGID_26_)}.st28{fill:url(#SVGID_27_)}</style><g id="Layer_12"><radialGradient id="SVGID_1_" cx="488.234" cy="963.872" r="81.495" gradientTransform="matrix(0.9979 -6.551694e-02 3.252485e-02 0.4954 -30.3008 518.3886)" gradientUnits="userSpaceOnUse"><stop offset=".317" style="stop-color:#727375"/><stop offset=".521" style="stop-color:#727375"/><stop offset=".724" style="stop-color:#747576"/><stop offset=".797" style="stop-color:#7b7c7b"/><stop offset=".85" style="stop-color:#868784"/><stop offset=".892" style="stop-color:#979890"/><stop offset=".927" style="stop-color:#adaea0"/><stop offset=".934" style="stop-color:#b2b3a4"/><stop offset=".974" style="stop-color:#b0b1a3"/><stop offset="1" style="stop-color:#9da5b0"/></radialGradient><path d="M450,956.4c0,0,3.3,42.5,52.4,40.8s60.2-17.7,60.2-17.7s8.8-10.5,6.6-23.2S450,956.4,450,956.4z" class="st0"/><radialGradient id="SVGID_2_" cx="530.282" cy="942.513" r="82.471" gradientTransform="matrix(-0.9826 0.186 -0.1329 -0.702 1176.5349 1505.5437)" gradientUnits="userSpaceOnUse"><stop offset=".521" style="stop-color:#727375;stop-opacity:0"/><stop offset=".724" style="stop-color:#747576;stop-opacity:.1968"/><stop offset=".797" style="stop-color:#7b7c7b;stop-opacity:.2676"/><stop offset=".85" style="stop-color:#868784;stop-opacity:.3182"/><stop offset=".892" style="stop-color:#979890;stop-opacity:.359"/><stop offset=".927" style="stop-color:#adaea0;stop-opacity:.3936"/><stop offset=".934" style="stop-color:#b2b3a4;stop-opacity:.4"/><stop offset=".974" style="stop-color:#b0b1a3;stop-opacity:.6"/><stop offset="1" style="stop-color:#b2b3a4"/></radialGradient><path d="M450,956.4c0,0,3.3,42.5,52.4,40.8s60.2-17.7,60.2-17.7s8.8-10.5,6.6-23.2S450,956.4,450,956.4z" class="st1"/><radialGradient id="SVGID_3_" cx="552.171" cy="970.277" r="30.148" gradientTransform="matrix(-0.8848 0.466 -0.2036 -0.3865 1238.2632 1088.004)" gradientUnits="userSpaceOnUse"><stop offset="0" style="stop-color:#8b8986"/><stop offset=".717" style="stop-color:#8b8986;stop-opacity:0"/></radialGradient><path d="M450,956.4c0,0,3.3,42.5,52.4,40.8s60.2-17.7,60.2-17.7s8.8-10.5,6.6-23.2S450,956.4,450,956.4z" class="st2"/><radialGradient id="SVGID_4_" cx="512.87" cy="954.239" r="28.923" gradientTransform="matrix(1.973300e-02 0.9998 -2.2362 4.413522e-02 2636.6033 399.3531)" gradientUnits="userSpaceOnUse"><stop offset="0" style="stop-color:#000;stop-opacity:.4"/><stop offset=".209" style="stop-color:#131313;stop-opacity:.3164"/><stop offset=".631" style="stop-color:#434445;stop-opacity:.1474"/><stop offset="1" style="stop-color:#727375;stop-opacity:0"/></radialGradient><path d="M450,956.4c0,0,3.3,42.5,52.4,40.8s60.2-17.7,60.2-17.7s8.8-10.5,6.6-23.2S450,956.4,450,956.4z" class="st3"/></g><g id="Layer_3" class="st4"><path d="M405.5,836.5c0,0,129,28,219-3c1,8-5,15-5,15s14,21-1,34c18,24-9,38-9,38s-2,30-38,37c2,36-56,40-56,40 s-59,3-64-40c-24-6-33-21-33-21s-38-17-10-38c-22-21,0-33,0-33S386.5,847.5,405.5,836.5z" class="st5"/></g><g id="Layer_5"><linearGradient id="SVGID_5_" x1="511.499" x2="511.499" y1="47.659" y2="493.138" gradientUnits="userSpaceOnUse"><stop offset="0" style="stop-color:#fffb6c"/><stop offset=".223" style="stop-color:#fef669"/><stop offset=".492" style="stop-color:#fae761"/><stop offset=".786" style="stop-color:#f3cf53"/><stop offset="1" style="stop-color:#edb847"/></linearGradient><path d="M511.5,509.5L511.5,509.5L511.5,509.5c219,2,207.9-28.6,209.1-27.8c39.5-47.3,63.3-108.1,63.3-174.5 c0-150.4-121.9-272.4-272.4-272.4S239.1,156.8,239.1,307.2c0,66.4,23.8,127.3,63.3,174.5C303.6,480.9,292.5,511.5,511.5,509.5z" class="st6"/><radialGradient id="SVGID_6_" cx="511.499" cy="297.182" r="244.564" gradientUnits="userSpaceOnUse"><stop offset="0" style="stop-color:#fffef8"/><stop offset=".168" style="stop-color:#fffde5"/><stop offset=".506" style="stop-color:#fef9b5"/><stop offset=".542" style="stop-color:#fef9b0"/><stop offset=".722" style="stop-color:#fef8ae"/><stop offset=".814" style="stop-color:#fef6a6"/><stop offset=".885" style="stop-color:#fdf299"/><stop offset=".946" style="stop-color:#fcec86"/><stop offset="1" style="stop-color:#fbe56e"/></radialGradient><path d="M511.5,499.4L511.5,499.4L511.5,499.4c209.7,1.9,199-27.4,200.1-26.6c37.8-45.2,60.6-103.5,60.6-167.1 c0-144-116.7-260.7-260.7-260.7S250.8,161.7,250.8,305.7c0,63.6,22.8,121.8,60.6,167.1C312.5,472,301.8,501.3,511.5,499.4z" class="st7"/><linearGradient id="SVGID_7_" x1="511.499" x2="511.499" y1="489.54" y2="452.526" gradientUnits="userSpaceOnUse"><stop offset="0" style="stop-color:#fce46e;stop-opacity:.6"/><stop offset="1" style="stop-color:#fbe56e;stop-opacity:0"/></linearGradient><path d="M511.5,499.4L511.5,499.4L511.5,499.4c209.7,1.9,199-27.4,200.1-26.6c37.8-45.2,60.6-103.5,60.6-167.1 c0-144-116.7-260.7-260.7-260.7S250.8,161.7,250.8,305.7c0,63.6,22.8,121.8,60.6,167.1C312.5,472,301.8,501.3,511.5,499.4z" class="st8"/></g><g id="Layer_6"><linearGradient id="SVGID_8_" x1="398.736" x2="617.053" y1="897.497" y2="897.497" gradientUnits="userSpaceOnUse"><stop offset="0" style="stop-color:#999795"/><stop offset=".149" style="stop-color:#9b9a98"/><stop offset=".257" style="stop-color:#a3a2a1"/><stop offset=".351" style="stop-color:#b1b1b1"/><stop offset=".424" style="stop-color:#c0c2c3"/><stop offset=".51" style="stop-color:#c0c2c3"/><stop offset=".594" style="stop-color:#c0c2c3"/><stop offset=".727" style="stop-color:#aeafae"/><stop offset=".887" style="stop-color:#9f9d9c"/><stop offset="1" style="stop-color:#999795"/></linearGradient><path d="M405.6,835.4c0,0-19.4,13.4,2.3,30.3c-22,15.2,0,31.8,0,31.8s-25.8,20.5,7.1,35.6c22,25.3,35.6,23,35.6,23 s50,20.3,123,0.1c38.4-11.2,36.4-35.4,36.4-35.4s26.8-12.9,8.8-38.4c15.4-18.9,0-32.8,0-32.8s8.9-8.9,6.8-16.7 C623.5,825,405.6,835.4,405.6,835.4z" class="st9"/></g><g id="Layer_22"><linearGradient id="SVGID_9_" x1="589.662" x2="550.745" y1="930.648" y2="940.95" gradientUnits="userSpaceOnUse"><stop offset=".283" style="stop-color:#a4a197"/><stop offset=".87" style="stop-color:#a9a7a3;stop-opacity:.4259"/><stop offset=".984" style="stop-color:#aaa8a6;stop-opacity:.3141"/><stop offset="1" style="stop-color:#aaa8a6;stop-opacity:.3"/></linearGradient><path d="M600.2,923.8c0,0-27.4,13.1-47.4,13.9c-20.1,0.7,8.4,2.6,8.4,2.6s39-5.5,39-10.9 C600.2,923.8,600.2,923.8,600.2,923.8z" class="st10"/><linearGradient id="SVGID_10_" x1="429.239" x2="481.422" y1="934.461" y2="937.381" gradientUnits="userSpaceOnUse"><stop offset=".056" style="stop-color:#a4a197"/><stop offset="1" style="stop-color:#aaa8a6;stop-opacity:.3"/></linearGradient><path d="M416.1,928.6c0,0,24.1,10.4,59.5,10c35.4-0.4-15,7.3-54.7-1.8C406.2,926.3,416.1,928.6,416.1,928.6z" class="st11"/></g><g id="Layer_21"><linearGradient id="SVGID_11_" x1="562.237" x2="599.684" y1="964.241" y2="927.029" gradientUnits="userSpaceOnUse"><stop offset=".056" style="stop-color:#fefefe;stop-opacity:0"/><stop offset=".432" style="stop-color:#ccd5e0;stop-opacity:.3988"/><stop offset=".809" style="stop-color:#a1b1c5;stop-opacity:.7976"/><stop offset="1" style="stop-color:#90a3bb"/></linearGradient><path d="M595.6,915.8c0,0-2.1,27.6-26.2,37.1c-24.1,9.5,10.8,4.1,22.1-4.4c8.7-5.6,17.9-13.7,18.4-26.7 C610.4,908.8,595.6,915.8,595.6,915.8z" class="st12"/></g><g id="Layer_17"><linearGradient id="SVGID_12_" x1="622.959" x2="544.4" y1="839.908" y2="869.027" gradientUnits="userSpaceOnUse"><stop offset="0" style="stop-color:#95aac3"/><stop offset=".369" style="stop-color:#bfdae6"/><stop offset=".454" style="stop-color:#d0dee4;stop-opacity:.9118"/><stop offset=".55" style="stop-color:#dae0e3;stop-opacity:.8115"/><stop offset=".657" style="stop-color:#dee1e3;stop-opacity:.7"/><stop offset="1" style="stop-color:#e0e2e3;stop-opacity:0"/></linearGradient><path d="M544.9,865.7c28,1.3,47.8-8.6,49.4-9.6c-10.2,10.3-39.7,17.9-39.7,17.9s46.1-3.6,63.4-22.5 c8.2-9.5,9.4-17.8,6.4-20.2C612.4,821.7,531.3,861.9,544.9,865.7z" class="st13"/></g><g id="Layer_18"><linearGradient id="SVGID_13_" x1="398.315" x2="592.721" y1="914.362" y2="914.362" gradientUnits="userSpaceOnUse"><stop offset="0" style="stop-color:#90a3bb"/><stop offset=".069" style="stop-color:#92a6bd"/><stop offset=".12" style="stop-color:#9aafc4"/><stop offset=".164" style="stop-color:#a7bfcf"/><stop offset=".204" style="stop-color:#b9d5df"/><stop offset=".242" style="stop-color:#d1f2f4"/><stop offset=".244" style="stop-color:#d2f3f5"/><stop offset=".305" style="stop-color:#d8f4f6"/><stop offset=".385" style="stop-color:#e8f9fa"/><stop offset=".46" style="stop-color:#fefefe"/><stop offset=".944" style="stop-color:#fefefe;stop-opacity:0"/></linearGradient><path d="M425.1,890.2c0,0,8.8,0.5,8.3,5.4s-15.6,2.5-15.6,2.5s11.3,12.1,13.8,16.4c2.5,4.3,60,15,84.3,11.6 c24.2-3.3,62.3-6.5,67-11.5c4.6-5,20.1,5-0.6,6.1c-20.7,1.2-90.6,18.9-131.4,10.6s-29.7,8.8-29.7,8.8s-2.9-4-6.2-7.2 c-22.9-10.2-19-25.2-7.1-35.6C417.2,883.2,425.1,890.2,425.1,890.2z" class="st14"/></g><g id="Layer_20"><linearGradient id="SVGID_14_" x1="433.249" x2="592.417" y1="951.504" y2="951.504" gradientUnits="userSpaceOnUse"><stop offset=".036" style="stop-color:#fefefe;stop-opacity:0"/><stop offset=".46" style="stop-color:#fefefe"/><stop offset=".944" style="stop-color:#fefefe;stop-opacity:0"/></linearGradient><path d="M435.1,945.5c0,0,22.6,17.7,75.6,15.2c53-2.6,66.3-9.6,76.6-19.6s4.4,7.7-13.1,13.5 c-17.5,5.8-39,11-65.1,10.3c-26.1-0.7-73.8-10-75.4-15.4C432.1,944.1,435.1,945.5,435.1,945.5z" class="st15"/></g><g id="Layer_14"><linearGradient id="SVGID_15_" x1="400.28" x2="456.817" y1="850.448" y2="863.803" gradientUnits="userSpaceOnUse"><stop offset="0" style="stop-color:#93a6bb"/><stop offset=".369" style="stop-color:#a2b7c8"/><stop offset=".69" style="stop-color:#abc0cf"/><stop offset=".705" style="stop-color:#aec2cf;stop-opacity:.9771"/><stop offset=".815" style="stop-color:#c0cbce;stop-opacity:.8153"/><stop offset=".894" style="stop-color:#c7cfce;stop-opacity:.7"/><stop offset=".902" style="stop-color:#c8cfce;stop-opacity:.6607"/><stop offset=".999" style="stop-color:#cdd2ce;stop-opacity:.2"/></linearGradient><path d="M415.3,838.4c0,0-11.1,8.1,4.6,12.4s38.7,5.5,38.7,5.5s4.4,5-2.7,4.2c-7.1-0.9-36.2-3.5-36.2-3.5 s-10.3,0-1.5,5.6c8.8,5.6,14.2,9.3,14.2,9.3s4.9,6-2.5,3s-14.1-4.8-26.1-12.8c-6.4-8-11-14.6,1.7-26.8 C414.8,834.2,415.3,838.4,415.3,838.4z" class="st16"/></g><g id="Layer_16"><linearGradient id="SVGID_16_" x1="436.233" x2="547.215" y1="879.824" y2="879.824" gradientUnits="userSpaceOnUse"><stop offset="0" style="stop-color:#484a4c"/><stop offset="1" style="stop-color:#484a4c;stop-opacity:0"/></linearGradient><path d="M436.2,876.9c0,0,26.2,11.4,111,2.6C494.4,882.8,436.2,876.9,436.2,876.9z" class="st17"/><linearGradient id="SVGID_17_" x1="585.22" x2="434.682" y1="863.528" y2="876.298" gradientUnits="userSpaceOnUse"><stop offset="0" style="stop-color:#484a4c"/><stop offset="1" style="stop-color:#484a4c;stop-opacity:0"/></linearGradient><path d="M473.9,870c0,0,92.2,2.3,120.4-14C559.8,886.8,473.9,870,473.9,870z" class="st18"/><linearGradient id="SVGID_18_" x1="453.758" x2="583.716" y1="901.121" y2="901.121" gradientUnits="userSpaceOnUse"><stop offset="0" style="stop-color:#484a4c;stop-opacity:0"/><stop offset="1" style="stop-color:#484a4c"/></linearGradient><path d="M583.7,893.6c0,0-70.6,14.7-130,6.8C453.8,900.5,508.8,922.8,583.7,893.6z" class="st19"/></g><g id="Layer_19"><linearGradient id="SVGID_19_" x1="618.619" x2="540.562" y1="900.35" y2="921.85" gradientUnits="userSpaceOnUse"><stop offset="0" style="stop-color:#90a3bb"/><stop offset=".078" style="stop-color:#99aec3"/><stop offset=".215" style="stop-color:#b0cad7"/><stop offset=".374" style="stop-color:#d2f3f5"/><stop offset="1" style="stop-color:#d2f3f5;stop-opacity:0"/></linearGradient><path d="M596.3,891.2c0,0,2.9,7.5-9.1,10.4c-12,2.9-18.7,9.1-22.8,9.1c-4.2,0-28.7,6.2-28.7,6.2s-9.1,5.4,6.2,6.2 c15.4,0.8,54.7-6.2,54.7-6.2s7.6,1.8,2.2,6.3c-5.4,4.5,17.3-2.4,22-12.5c7.4-7.9,3.8-20.2-2.1-28.4 C612.9,880.2,596.3,891.2,596.3,891.2z" class="st20"/></g><g id="Layer_15"><linearGradient id="SVGID_20_" x1="398.062" x2="625.528" y1="879.066" y2="879.066" gradientUnits="userSpaceOnUse"><stop offset="0" style="stop-color:#9cb1c7"/><stop offset=".022" style="stop-color:#a0b6cb"/><stop offset=".049" style="stop-color:#adc5d7"/><stop offset=".078" style="stop-color:#c2ddea"/><stop offset=".087" style="stop-color:#c9e5f1"/><stop offset=".235" style="stop-color:#c9e5f1"/><stop offset=".286" style="stop-color:#d9ebf3"/><stop offset=".357" style="stop-color:#e9f1f5"/><stop offset=".439" style="stop-color:#f2f5f6"/><stop offset=".554" style="stop-color:#f5f6f6"/><stop offset=".604" style="stop-color:#e9f1f5"/><stop offset=".72" style="stop-color:#d2e8f2"/><stop offset=".792" style="stop-color:#c9e5f1"/><stop offset="1" style="stop-color:#9cb1c7"/></linearGradient><path d="M407.8,865.8c0,0,16,8.8,18.1,11.3s4.1,5.7,3.3,8s44.8,9.2,65.8,8.5c21-0.7,83.6-12.9,84.6-14.6 c1-1.7-6.3-3.5-1.4-5.9c4.9-2.4,36.3-13.2,40.6-23.6c5.5,5.2,12,18.7,0,32.8c-1.4,0.9-22.9,14.9-45.4,17.9l27.4-13.3 c0,0-85.3,9.8-130.7,8.1s-56.8-11.3-55.4,0.5c11.7,6.2,19.1,13.1,19.1,13.1s-18.7-3-24.8-9.8C401.2,891.3,389.5,878.4,407.8,865.8z" class="st21"/></g><g id="Layer_13"><linearGradient id="SVGID_21_" x1="405.229" x2="621.772" y1="846.513" y2="846.513" gradientUnits="userSpaceOnUse"><stop offset="0" style="stop-color:#fff;stop-opacity:0"/><stop offset=".005" style="stop-color:#e3e4e4;stop-opacity:3.244674e-02"/><stop offset=".013" style="stop-color:#bfc0c0;stop-opacity:8.289307e-02"/><stop offset=".022" style="stop-color:#9fa0a1;stop-opacity:.1396"/><stop offset=".032" style="stop-color:#838586;stop-opacity:.2023"/><stop offset=".043" style="stop-color:#6d6f71;stop-opacity:.2732"/><stop offset=".056" style="stop-color:#5c5e60;stop-opacity:.3559"/><stop offset=".072" style="stop-color:#515354;stop-opacity:.4582"/><stop offset=".094" style="stop-color:#4a4c4e;stop-opacity:.6017"/><stop offset=".156" style="stop-color:#484a4c"/><stop offset=".205" style="stop-color:#484a4c"/><stop offset=".501" style="stop-color:#484a4c"/><stop offset=".805" style="stop-color:#484a4c"/><stop offset=".883" style="stop-color:#4a4c4e;stop-opacity:.6017"/><stop offset=".911" style="stop-color:#515354;stop-opacity:.4582"/><stop offset=".931" style="stop-color:#5c5e60;stop-opacity:.3559"/><stop offset=".947" style="stop-color:#6d6f71;stop-opacity:.2732"/><stop offset=".961" style="stop-color:#838586;stop-opacity:.2023"/><stop offset=".973" style="stop-color:#9fa0a1;stop-opacity:.1396"/><stop offset=".984" style="stop-color:#bfc0c0;stop-opacity:8.289307e-02"/><stop offset=".994" style="stop-color:#e3e4e4;stop-opacity:3.244674e-02"/><stop offset="1" style="stop-color:#fff;stop-opacity:0"/></linearGradient><path d="M621.8,833.2c0,0-15.6,26.9-121.7,26.5s-94.5-22.6-94.5-22.6L621.8,833.2z" class="st22"/></g><g id="Layer_4"><linearGradient id="SVGID_22_" x1="511.499" x2="511.499" y1="513.842" y2="840.479" gradientUnits="userSpaceOnUse"><stop offset="0" style="stop-color:#dfe0e4"/><stop offset=".111" style="stop-color:#dfe0e4"/><stop offset=".227" style="stop-color:#e7e8ec"/><stop offset=".442" style="stop-color:#f0f0f4"/><stop offset=".815" style="stop-color:#f2f2f6"/></linearGradient><path d="M718.5,480.5c0,0,12,31-207,29l0,0h0h0l0,0c-219,2-207-29-207-29s-15,7,0,18s71,243,54,291c15,8,30,32,30,32 s3,2-3,4c-6,2,36,22,126,22h0h0h0h0c90,0,132-20,126-22c-6-2-3-4-3-4s15-24,30-32c-17-48,39-280,54-291S718.5,480.5,718.5,480.5z" class="st23"/></g><g id="Layer_4_copy"><radialGradient id="SVGID_23_" cx="507.95" cy="842.89" r="421.87" gradientTransform="matrix(-1.650668e-03 -1 0.5695 -9.400374e-04 28.7725 1351.6324)" gradientUnits="userSpaceOnUse"><stop offset="0" style="stop-color:#f3f3f7;stop-opacity:3.000000e-02"/><stop offset="1" style="stop-color:#d7d8dc"/></radialGradient><path d="M718.5,480.5c0,0,12,31-207,29l0,0h0h0l0,0c-219,2-207-29-207-29s-15,7,0,18s71,243,54,291c15,8,30,32,30,32 s3,2-3,4c-6,2,36,22,126,22h0h0h0h0c90,0,132-20,126-22c-6-2-3-4-3-4s15-24,30-32c-17-48,39-280,54-291S718.5,480.5,718.5,480.5z" class="st24"/></g><g id="Layer_7"><linearGradient id="SVGID_24_" x1="720.016" x2="641.864" y1="651.215" y2="644.017" gradientUnits="userSpaceOnUse"><stop offset=".162" style="stop-color:#d0d4db"/><stop offset=".978" style="stop-color:#d0d4db;stop-opacity:2.611685e-02"/><stop offset="1" style="stop-color:#d0d4db;stop-opacity:0"/></linearGradient><path d="M684.3,499c0,0-71.9,267.1-44.9,315.3c7.3-7.2,15-20.7,25.1-24.9c-11.5-61.6,29-245.5,54-291 c0.8-3.2,6.7-3.5,6.7-9.6c1-4.1-6.7-8.4-6.7-8.4s2.1,6.4-12,11.8C694.9,497.6,684.3,499,684.3,499z" class="st25"/></g><g id="Layer_9"><linearGradient id="SVGID_25_" x1="667.845" x2="629.79" y1="532.049" y2="811.868" gradientUnits="userSpaceOnUse"><stop offset="0" style="stop-color:#dfe1e6;stop-opacity:.7"/><stop offset="1" style="stop-color:#dfe1e6;stop-opacity:0"/></linearGradient><path d="M676.1,501.6c0,0-79.3,244.1-38.5,319.8l5.2-6.6c-27-66.4,44.6-315.7,44.6-315.7L676.1,501.6z" class="st26"/></g><g id="Layer_4_copy_2"><radialGradient id="SVGID_26_" cx="492.521" cy="497.594" r="115.955" gradientTransform="matrix(4.714199e-03 1 -8.741 4.120727e-02 4839.6704 -15.4253)" gradientUnits="userSpaceOnUse"><stop offset="0" style="stop-color:#fdfeff"/><stop offset=".059" style="stop-color:#fdfeff;stop-opacity:1"/><stop offset=".069" style="stop-color:#fdfeff;stop-opacity:1"/><stop offset=".136" style="stop-color:#fbfcfd;stop-opacity:.8912"/><stop offset=".162" style="stop-color:#f4f5f7;stop-opacity:.8491"/><stop offset=".18" style="stop-color:#e8e9eb;stop-opacity:.8187"/><stop offset=".192" style="stop-color:#dcdde0;stop-opacity:.8"/><stop offset=".295" style="stop-color:#dddee1;stop-opacity:0"/><stop offset="1" style="stop-color:#dfe0e4;stop-opacity:0"/></radialGradient><path d="M718.5,480.5c0,0,12,31-207,29h0h0c-219,2-207-29-207-29s-15,7,0,18c2.4,1.8,14.4,39.3,18.6,51.1 c49.1,20.8,150.8,11.3,350.5-29c17.9-3.6,25.5-17.7,45-22.1C733.5,487.5,718.5,480.5,718.5,480.5z" class="st27"/></g><g id="Layer_11"><linearGradient id="SVGID_27_" x1="348.404" x2="357.681" y1="636.249" y2="635.09" gradientUnits="userSpaceOnUse"><stop offset="0" style="stop-color:#dde9f3;stop-opacity:.6"/><stop offset=".019" style="stop-color:#dde9f3;stop-opacity:.5857"/><stop offset=".135" style="stop-color:#dde9f3;stop-opacity:.5"/></linearGradient><path d="M304.5,480.5c0,0-15,7,0,18s71,243,54,291c2.7,1.5,5.5,3.4,8.1,5.7c0,0,0-0.1,0.1-0.1 c20.6-55.8-42.3-289.5-49.9-294.2c-5.4-3.3-7.2-9.5-7.9-12.9C303.3,483.7,304.5,480.5,304.5,480.5z" class="st28"/></g></svg>