<svg xmlns="http://www.w3.org/2000/svg" xmlns:xlink="http://www.w3.org/1999/xlink" x="0" y="0" version="1.1" viewBox="0 0 1024 1024" xml:space="preserve" style="enable-background:new 0 0 1024 1024"><style type="text/css">.st0{fill:#ffa106}.st1{fill:url(#SVGID_1_)}.st2{fill:none;stroke:#ffa106;stroke-width:14;stroke-miterlimit:10}</style><g id="Circle"><circle cx="512" cy="512" r="447" class="st0"/><radialGradient id="SVGID_1_" cx="508.122" cy="108.689" r="794.709" gradientUnits="userSpaceOnUse"><stop offset="0" style="stop-color:#893e00"/><stop offset=".252" style="stop-color:#863d00"/><stop offset=".457" style="stop-color:#7c3800"/><stop offset=".646" style="stop-color:#6b3100"/><stop offset=".824" style="stop-color:#532700"/><stop offset=".995" style="stop-color:#341900"/><stop offset="1" style="stop-color:#331900"/></radialGradient><circle cx="512" cy="512" r="409" class="st1"/></g><g id="Circles"><path d="M374.5,581.5V634c0,11-9,20-20,20H302c-11,0-20-9-20-20v-52.5c0-11,9-20,20-20h52.5 C365.5,561.5,374.5,570.5,374.5,581.5z" class="st0"/><path d="M563.6,320v52.5c0,11-9,20-20,20h-52.5c-11,0-20-9-20-20V320c0-11,9-20,20-20h52.5 C554.7,300,563.6,309,563.6,320z" class="st0"/><path d="M753,581.5V634c0,11-9,20-20,20h-52.5c-11,0-20-9-20-20v-52.5c0-11,9-20,20-20H733 C744,561.5,753,570.5,753,581.5z" class="st0"/><polygon points="327.8 608 516.9 354.8 707 608" class="st2"/></g></svg>