<svg xmlns="http://www.w3.org/2000/svg" xmlns:xlink="http://www.w3.org/1999/xlink" id="Layer_1" x="0" y="0" version="1.1" viewBox="0 0 1024 1024" xml:space="preserve" style="enable-background:new 0 0 1024 1024"><style type="text/css">.st0{fill:url(#SVGID_1_)}.st1{fill:url(#SVGID_2_);stroke:#000;stroke-width:.75;stroke-miterlimit:10}.st2{fill:url(#SVGID_3_)}.st3{stroke:#959595;stroke-width:.75;stroke-miterlimit:10}.st4{fill:url(#SVGID_4_)}.st5{fill:url(#SVGID_5_)}</style><g id="Layer_2"><linearGradient id="SVGID_1_" x1="230.057" x2="742.008" y1="562.002" y2="465.042" gradientTransform="matrix(1 0 0 -1 0 1021.75)" gradientUnits="userSpaceOnUse"><stop offset="0" style="stop-color:#515151"/><stop offset=".04" style="stop-color:#656565"/><stop offset=".115" style="stop-color:#858585"/><stop offset=".197" style="stop-color:#9f9f9f"/><stop offset=".287" style="stop-color:#b4b4b4"/><stop offset=".388" style="stop-color:#c2c2c2"/><stop offset=".51" style="stop-color:#cacaca"/><stop offset=".714" style="stop-color:#cdcdcd"/><stop offset=".832" style="stop-color:#c9c9c9"/><stop offset=".96" style="stop-color:#bcbcbc"/><stop offset="1" style="stop-color:#b6b6b6"/></linearGradient><path d="M616.7,953.1H408.3c-86.8,0-157.2-70.4-157.2-157.2V230.6c0-86.8,70.4-157.2,157.2-157.2h208.5 c86.8,0,157.2,70.4,157.2,157.2v565.3C774,882.7,703.6,953.1,616.7,953.1z" class="st0"/><g><linearGradient id="SVGID_2_" x1="251.1" x2="774" y1="732.85" y2="732.85" gradientTransform="matrix(1 0 0 -1 0 1021.75)" gradientUnits="userSpaceOnUse"><stop offset="0" style="stop-color:#010101"/><stop offset=".122" style="stop-color:#151515"/><stop offset=".262" style="stop-color:#232323"/><stop offset=".432" style="stop-color:#2b2b2b"/><stop offset=".714" style="stop-color:#2e2e2e"/><stop offset=".797" style="stop-color:#2a2a2a"/><stop offset=".886" style="stop-color:#1d1d1d"/><stop offset=".978" style="stop-color:#070707"/><stop offset="1" style="stop-color:#010101"/></linearGradient><path d="M774,504.2V230.6c0-86.8-70.4-157.2-157.2-157.2H408.3c-86.8,0-157.2,70.4-157.2,157.2v273.8 C303.9,499.6,562.6,478.7,774,504.2z" class="st1"/></g><linearGradient id="SVGID_3_" x1="545.941" x2="742.452" y1="657.262" y2="896.351" gradientTransform="matrix(1 0 0 -1 0 1021.75)" gradientUnits="userSpaceOnUse"><stop offset="0" style="stop-color:#959595"/><stop offset="1" style="stop-color:#4e4e4e"/></linearGradient><path d="M549.8,491.8c73.5,0.3,151.6,3.6,224.2,12.4V230.6c0-86.8-70.4-157.2-157.2-157.2H442.3 C450.1,82.6,525,178.5,549.8,491.8z" class="st2"/></g><g id="Layer_3"><path d="M251,501.9v5c52.5-4.7,312.7-25.5,522.9-0.2v-5C564,476.5,304.7,497.1,251,501.9z"/><path d="M508,73.4v376.7c0,2.2,1.8,4,4,4s4-1.8,4-4V73.4H508z" class="st3"/></g><g id="Layer_5"><linearGradient id="SVGID_4_" x1="456.532" x2="575.03" y1="245.1" y2="245.1" gradientTransform="matrix(1 0 0 -1 0 1021.75)" gradientUnits="userSpaceOnUse"><stop offset="0" style="stop-color:#b3b3b3"/><stop offset="1" style="stop-color:#dcdcdc"/></linearGradient><polygon points="453.7 748.1 453.7 777.6 481.1 805.2 508.5 777.6 508.5 748.1" class="st4"/><linearGradient id="SVGID_5_" x1="456.532" x2="575.03" y1="245.05" y2="245.05" gradientTransform="matrix(1 0 0 -1 0 1021.75)" gradientUnits="userSpaceOnUse"><stop offset="0" style="stop-color:#b3b3b3"/><stop offset="1" style="stop-color:#dcdcdc"/></linearGradient><circle cx="542.8" cy="776.7" r="28.5" class="st5"/></g></svg>