<svg xmlns="http://www.w3.org/2000/svg" xmlns:xlink="http://www.w3.org/1999/xlink" x="0" y="0" version="1.1" viewBox="0 0 1024 1024" xml:space="preserve" style="enable-background:new 0 0 1024 1024"><style type="text/css">.st0{fill:url(#SVGID_1_)}.st1{fill:url(#SVGID_2_)}.st2{fill:#32337c}.st3{fill:#076cab}.st4{fill:#444544}.st5{fill:#fee9aa}.st6{fill:#c7774b}.st7{fill:#066dae}.st8{fill:#0dbebb}.st9{fill:#feeaab}.st10{fill:#492207}.st11{fill:#764c22}.st12{fill:#744c21}.st13{fill:#adeeee}.st14{fill:#323232}</style><g id="Circle"><radialGradient id="SVGID_1_" cx="531.768" cy="-103.394" r="954.203" gradientUnits="userSpaceOnUse"><stop offset="0" style="stop-color:#fbfafa"/><stop offset="1" style="stop-color:#d5d5d5"/></radialGradient><circle cx="508.8" cy="511.7" r="447" class="st0"/><radialGradient id="SVGID_2_" cx="517.368" cy="23.87" r="671.334" gradientUnits="userSpaceOnUse"><stop offset="0" style="stop-color:#b0cc97"/><stop offset=".14" style="stop-color:#a8c88c"/><stop offset=".389" style="stop-color:#92bc6e"/><stop offset=".56" style="stop-color:#80b355"/><stop offset=".727" style="stop-color:#77894b"/><stop offset=".906" style="stop-color:#6e6142"/><stop offset="1" style="stop-color:#6b523e"/></radialGradient><circle cx="509.1" cy="514.7" r="409" class="st1"/></g><g id="Leg_-_Left"><polyline points="454.3 646.5 441.5 669.2 458.9 671.8 582.9 773.3 592.6 789.3 621 722.3 491.9 649.9 454.3 646.5" class="st2"/><polygon points="441.5 669.2 456.8 688.9 577.5 785.1 592.6 789.3 582.9 773.3 458.9 671.8" class="st3"/><polygon points="592.6 789.3 577.5 785.1 573.1 794 601 803.4 631.1 732.4 623.7 722.6 616.6 732.7" class="st4"/></g><g id="Arm_-_Left"><polygon points="406.1 352.3 207.6 315 204.2 429.5 402.4 449.5" class="st5"/><polygon points="207.6 315 169.4 333 166 437.9 357.2 454.4 402.4 449.5 204.2 429.5" class="st6"/><polygon points="402.4 449.5 357.2 454.4 432 460.4 432 452" class="st7"/><polygon points="406.1 352.3 433.3 357.8 432 452 402.4 449.5" class="st8"/></g><g id="Torso"><polyline points="431 355 433.8 644.5 615.1 661.5 615.1 336.7 611.7 335.5 431 355" class="st8"/><polyline points="615.1 607.4 433.3 598.3 433.8 644.5 615.1 661.4 615.1 607.4" class="st3"/><polyline points="615.1 336.7 652.3 347 652.7 594.2 615.1 607.4 615.1 336.7" class="st3"/><polyline points="472.3 350.5 472.3 375.3 495 373.7 495 398 539 396 539 369.7 563 368 563 340.7 472.3 350.5" class="st6"/><polygon points="615.1 607.4 615.1 661.4 652.7 643.9 652.7 594.2" class="st2"/></g><g id="Head"><polyline points="401 140 401 348 589 327.2 589 91 401 140" class="st6"/><polyline points="589 91 589 327.3 666 355 666 169" class="st9"/><g id="Hair"><path d="M589,91l-188.3,49v78l23.4-3v-28l137.4-30v31l28.3-6C589.8,152.3,589,91,589,91z" class="st10"/><polygon points="589 91 589 242.1 601 245 601 220.9 621 230 621 286.7 641 296 641 323 666 333 666 168.9" class="st11"/></g><polygon points="401 348 431 355 611.7 335.5 589 327.3" class="st12"/></g><g id="Leg_-_Right"><polygon points="612.5 627.8 483 779 376 750.5 516.5 617.5" class="st3"/><polyline points="483 779 507.5 886.3 641 698.3 623 615.3 612.5 627.8 483 779" class="st2"/><g id="Foot"><polygon points="376 750.5 483 779 440.9 828.1 331.7 792.9" class="st13"/><polygon points="440.9 828.1 470 937.3 507.5 886.3 483 779" class="st4"/><polygon points="331.7 792.9 440.9 828.1 470 937.3 364.8 895.4" class="st14"/></g></g><g id="Arm_-_Right"><polygon points="636.3 330.7 603.8 382.2 711.8 360.9 730.8 308.7" class="st13"/><polygon points="711.8 360.9 742.3 458 758.4 400.9 730.8 308.7" class="st8"/><polyline points="603.8 382.2 711.8 360.9 742.3 458 638.3 472.5 603.8 382.2" class="st3"/><polyline points="638.3 472.5 696 621.5 792.7 617.5 742.3 458 638.3 472.5" class="st6"/><polyline points="742.3 458 758.4 400.9 803 554.3 792.7 617.5 742.3 458" class="st5"/></g></svg>