<svg xmlns="http://www.w3.org/2000/svg" xmlns:svg="http://www.w3.org/2000/svg" id="orca" x="0" y="0" version="1.1" viewBox="0 0 1024 1024" xml:space="preserve" style="enable-background:new 0 0 1024 1024"><metadata id="metadata51"/><defs id="defs49"><linearGradient id="SVGID_3_-3" x1="512" x2="512" y1="100.161" y2="922.773" gradientTransform="translate(-63.199656,-92.099656)" gradientUnits="userSpaceOnUse"><stop style="stop-color:#c8d8dc" id="stop27-6" offset=".318"/><stop style="stop-color:#acb6ba" id="stop29-7" offset="1"/></linearGradient><filter style="color-interpolation-filters:sRGB" id="filter4835" width="1.04" height="1.042" x="-.02" y="-.021"><feGaussianBlur id="feGaussianBlur4837" stdDeviation="7.389"/></filter><clipPath id="clipPath4863" clipPathUnits="userSpaceOnUse"><rect style="opacity:.225;vector-effect:none;fill:#00001f;fill-opacity:1;stroke:none;stroke-width:1;stroke-linecap:butt;stroke-linejoin:miter;stroke-miterlimit:4;stroke-dasharray:none;stroke-dashoffset:0;stroke-opacity:1" id="rect4865" width="832" height="756.068" x="101.966" y="-894.915" transform="scale(1,-1)"/></clipPath><filter style="color-interpolation-filters:sRGB" id="filter4915" width="1.134" height="1.101" x="-.067" y="-.05"><feGaussianBlur id="feGaussianBlur4917" stdDeviation="7.139"/></filter></defs><style id="style2" type="text/css">.st0{fill:url(#SVGID_1_)}.st1{fill:#c8d8dc}.st2{fill:url(#SVGID_2_)}.st3{fill:url(#SVGID_3_)}.st4{fill:url(#Blue_2_)}</style><g id="g44"><g id="Blue_1_" style="display:inline"><linearGradient id="SVGID_1_" x1="512" x2="512" y1="92.05" y2="932.95" gradientUnits="userSpaceOnUse"><stop style="stop-color:#99b1b6" id="stop4" offset="0"/><stop style="stop-color:#8b9ea2" id="stop6" offset=".5"/><stop style="stop-color:#78888c" id="stop8" offset="1"/></linearGradient><path id="path11" d="M 909.3,933 111.7,930.1 C 84.8,930 63.1,908.1 63.2,881.2 L 65.8,140.6 C 65.9,113.7 87.8,92 114.7,92.1 L 912.3,95 c 26.9,0.1 48.6,22 48.5,48.9 l -2.7,740.6 c 0,26.8 -21.9,48.5 -48.8,48.5 z" class="st0" style="fill:url(#SVGID_1_)"/></g><g id="g4897" style="fill:#00001f;fill-opacity:1;filter:url(#filter4915);opacity:.297"><g style="display:inline;fill:#00001f;fill-opacity:1" id="g16"><circle style="fill:#00001f;fill-opacity:1" id="circle14" cx="512" cy="503.5" r="28.3" class="st1"/></g><g style="display:inline;fill:#00001f;fill-opacity:1" id="g25"><linearGradient id="SVGID_2_" x1="512" x2="512" y1="536.723" y2="814.775" gradientUnits="userSpaceOnUse"><stop id="stop18" offset="0" style="stop-color:#c8d8dc"/><stop id="stop20" offset="1" style="stop-color:#acb6ba"/></linearGradient><path style="fill:#00001f;fill-opacity:1" id="path23" d="m 639.5,550 c -0.9,-8.2 -8.4,-14.2 -16.6,-13.2 l -82.2,9.3 H 483.2 L 401,536.8 c -8.2,-0.9 -15.7,5 -16.6,13.2 -0.9,8.2 5,15.7 13.2,16.6 l 75.8,8.6 v 87.4 l -35.3,131.1 c -2.5,8.8 2.6,17.9 11.4,20.4 1.5,0.4 3,0.6 4.5,0.6 7.2,0 13.8,-4.8 15.9,-12 l 36.8,-123.1 h 10.4 L 554,802.8 c 2.1,7.3 8.7,12 15.9,12 1.5,0 3,-0.2 4.5,-0.6 8.8,-2.5 13.9,-11.6 11.4,-20.4 L 550.5,662.7 v -87.4 l 75.8,-8.6 c 8.2,-1 14.1,-8.4 13.2,-16.7 z" class="st2"/></g></g><path id="path4839" d="M 912.3,95 114.7,92.1 C 87.8,92 65.9,113.7 65.8,140.6 l -2.6,740.6 c -0.1,26.9 21.6,48.8 48.5,48.9 l 797.6,2.9 c 26.9,0 48.8,-21.7 48.8,-48.5 l 2.7,-740.6 C 960.9,117 939.2,95.1 912.3,95 Z M 661.4,254.3 c 0,-6.9 5.6,-12.5 12.5,-12.5 6.9,0 12.5,5.6 12.5,12.5 v 53.5 c 0,6.9 -5.6,12.5 -12.5,12.5 -6.9,0 -12.5,-5.6 -12.5,-12.5 z m -36,-11 c 0,-6.9 5.6,-12.5 12.5,-12.5 6.9,0 12.5,5.6 12.5,12.5 v 79.5 c 0,6.9 -5.6,12.5 -12.5,12.5 -6.9,0 -12.5,-5.6 -12.5,-12.5 z m -36,-28.5 c 0,-6.9 5.6,-12.5 12.5,-12.5 6.9,0 12.5,5.6 12.5,12.5 V 347 c 0,6.9 -5.6,12.5 -12.5,12.5 -6.9,0 -12.5,-5.6 -12.5,-12.5 z m -35.9,33 c 0,-6.9 5.6,-12.5 12.5,-12.5 6.9,0 12.5,5.6 12.5,12.5 V 317 c 0,6.9 -5.6,12.5 -12.5,12.5 -6.9,0 -12.5,-5.6 -12.5,-12.5 z m -36,18.3 c 0,-6.9 5.6,-12.5 12.5,-12.5 6.9,0 12.5,5.6 12.5,12.5 v 32.8 c 0,6.9 -5.6,12.5 -12.5,12.5 -6.9,0 -12.5,-5.6 -12.5,-12.5 z m -36,-11.3 c 0,-6.9 5.6,-12.5 12.5,-12.5 6.9,0 12.5,5.6 12.5,12.5 v 53.1 c 0,6.9 -5.6,12.5 -12.5,12.5 -6.9,0 -12.5,-5.6 -12.5,-12.5 z m -36,-36.3 c 0,-6.9 5.6,-12.5 12.5,-12.5 6.9,0 12.5,5.6 12.5,12.5 V 344 c 0,6.9 -5.6,12.5 -12.5,12.5 -6.9,0 -12.5,-5.6 -12.5,-12.5 z m -35.9,-45 c 0,-6.9 5.6,-12.5 12.5,-12.5 6.9,0 12.5,5.6 12.5,12.5 v 215.3 c 0,6.9 -5.6,12.5 -12.5,12.5 -6.9,0 -12.5,-5.6 -12.5,-12.5 z m -36,53.4 c 0,-6.9 5.6,-12.5 12.5,-12.5 6.9,0 12.5,5.6 12.5,12.5 v 110.4 c 0,6.9 -5.6,12.5 -12.5,12.5 -6.9,0 -12.5,-5.6 -12.5,-12.5 z m -36,18.8 c 0,-6.9 5.6,-12.5 12.5,-12.5 6.9,0 12.5,5.6 12.5,12.5 v 73.7 c 0,6.9 -5.6,12.5 -12.5,12.5 -6.9,0 -12.5,-5.6 -12.5,-12.5 z M 512,864.3 c -119,0 -215.4,-96.4 -215.4,-215.4 0,-119 96.4,-215.4 215.4,-215.4 119,0 215.4,96.4 215.4,215.4 0,119 -96.4,215.4 -215.4,215.4 z" class="st3" style="opacity:1;vector-effect:none;fill:url(#SVGID_3_);fill-opacity:1;stroke-width:1;stroke-linecap:butt;stroke-linejoin:miter;stroke-miterlimit:4;stroke-dasharray:none;stroke-dashoffset:0;stroke-opacity:1"/><g id="g34" style="display:inline"><linearGradient id="SVGID_3_" x1="512" x2="512" y1="100.161" y2="922.773" gradientUnits="userSpaceOnUse"><stop style="stop-color:#c8d8dc" id="stop27" offset=".318"/><stop style="stop-color:#acb6ba" id="stop29" offset="1"/></linearGradient><path id="path32" d="M 912.3,95 114.7,92.1 C 87.8,92 65.9,113.7 65.8,140.6 l -2.6,740.6 c -0.1,26.9 21.6,48.8 48.5,48.9 l 797.6,2.9 c 26.9,0 48.8,-21.7 48.8,-48.5 l 2.7,-740.6 C 960.9,117 939.2,95.1 912.3,95 Z M 661.4,254.3 c 0,-6.9 5.6,-12.5 12.5,-12.5 6.9,0 12.5,5.6 12.5,12.5 v 53.5 c 0,6.9 -5.6,12.5 -12.5,12.5 -6.9,0 -12.5,-5.6 -12.5,-12.5 z m -36,-11 c 0,-6.9 5.6,-12.5 12.5,-12.5 6.9,0 12.5,5.6 12.5,12.5 v 79.5 c 0,6.9 -5.6,12.5 -12.5,12.5 -6.9,0 -12.5,-5.6 -12.5,-12.5 z m -36,-28.5 c 0,-6.9 5.6,-12.5 12.5,-12.5 6.9,0 12.5,5.6 12.5,12.5 V 347 c 0,6.9 -5.6,12.5 -12.5,12.5 -6.9,0 -12.5,-5.6 -12.5,-12.5 z m -35.9,33 c 0,-6.9 5.6,-12.5 12.5,-12.5 6.9,0 12.5,5.6 12.5,12.5 V 317 c 0,6.9 -5.6,12.5 -12.5,12.5 -6.9,0 -12.5,-5.6 -12.5,-12.5 z m -36,18.3 c 0,-6.9 5.6,-12.5 12.5,-12.5 6.9,0 12.5,5.6 12.5,12.5 v 32.8 c 0,6.9 -5.6,12.5 -12.5,12.5 -6.9,0 -12.5,-5.6 -12.5,-12.5 z m -36,-11.3 c 0,-6.9 5.6,-12.5 12.5,-12.5 6.9,0 12.5,5.6 12.5,12.5 v 53.1 c 0,6.9 -5.6,12.5 -12.5,12.5 -6.9,0 -12.5,-5.6 -12.5,-12.5 z m -36,-36.3 c 0,-6.9 5.6,-12.5 12.5,-12.5 6.9,0 12.5,5.6 12.5,12.5 V 344 c 0,6.9 -5.6,12.5 -12.5,12.5 -6.9,0 -12.5,-5.6 -12.5,-12.5 z m -35.9,-45 c 0,-6.9 5.6,-12.5 12.5,-12.5 6.9,0 12.5,5.6 12.5,12.5 v 215.3 c 0,6.9 -5.6,12.5 -12.5,12.5 -6.9,0 -12.5,-5.6 -12.5,-12.5 z m -36,53.4 c 0,-6.9 5.6,-12.5 12.5,-12.5 6.9,0 12.5,5.6 12.5,12.5 v 110.4 c 0,6.9 -5.6,12.5 -12.5,12.5 -6.9,0 -12.5,-5.6 -12.5,-12.5 z m -36,18.8 c 0,-6.9 5.6,-12.5 12.5,-12.5 6.9,0 12.5,5.6 12.5,12.5 v 73.7 c 0,6.9 -5.6,12.5 -12.5,12.5 -6.9,0 -12.5,-5.6 -12.5,-12.5 z M 512,864.3 c -119,0 -215.4,-96.4 -215.4,-215.4 0,-119 96.4,-215.4 215.4,-215.4 119,0 215.4,96.4 215.4,215.4 0,119 -96.4,215.4 -215.4,215.4 z" class="st3" clip-path="url(#clipPath4863)" style="display:inline;opacity:.225;vector-effect:none;fill:#00001f;fill-opacity:1;stroke-width:1;stroke-linecap:butt;stroke-linejoin:miter;stroke-miterlimit:4;stroke-dasharray:none;stroke-dashoffset:0;stroke-opacity:1;filter:url(#filter4835)"/><path style="display:inline;opacity:1;vector-effect:none;fill:url(#SVGID_3_);fill-opacity:1;stroke-width:1;stroke-linecap:butt;stroke-linejoin:miter;stroke-miterlimit:4;stroke-dasharray:none;stroke-dashoffset:0;stroke-opacity:1" id="path4593" d="M 912.3,95 114.7,92.1 C 87.8,92 65.9,113.7 65.8,140.6 l -2.6,740.6 c -0.1,26.9 21.6,48.8 48.5,48.9 l 797.6,2.9 c 26.9,0 48.8,-21.7 48.8,-48.5 l 2.7,-740.6 C 960.9,117 939.2,95.1 912.3,95 Z M 661.4,254.3 c 0,-6.9 5.6,-12.5 12.5,-12.5 6.9,0 12.5,5.6 12.5,12.5 v 53.5 c 0,6.9 -5.6,12.5 -12.5,12.5 -6.9,0 -12.5,-5.6 -12.5,-12.5 z m -36,-11 c 0,-6.9 5.6,-12.5 12.5,-12.5 6.9,0 12.5,5.6 12.5,12.5 v 79.5 c 0,6.9 -5.6,12.5 -12.5,12.5 -6.9,0 -12.5,-5.6 -12.5,-12.5 z m -36,-28.5 c 0,-6.9 5.6,-12.5 12.5,-12.5 6.9,0 12.5,5.6 12.5,12.5 V 347 c 0,6.9 -5.6,12.5 -12.5,12.5 -6.9,0 -12.5,-5.6 -12.5,-12.5 z m -35.9,33 c 0,-6.9 5.6,-12.5 12.5,-12.5 6.9,0 12.5,5.6 12.5,12.5 V 317 c 0,6.9 -5.6,12.5 -12.5,12.5 -6.9,0 -12.5,-5.6 -12.5,-12.5 z m -36,18.3 c 0,-6.9 5.6,-12.5 12.5,-12.5 6.9,0 12.5,5.6 12.5,12.5 v 32.8 c 0,6.9 -5.6,12.5 -12.5,12.5 -6.9,0 -12.5,-5.6 -12.5,-12.5 z m -36,-11.3 c 0,-6.9 5.6,-12.5 12.5,-12.5 6.9,0 12.5,5.6 12.5,12.5 v 53.1 c 0,6.9 -5.6,12.5 -12.5,12.5 -6.9,0 -12.5,-5.6 -12.5,-12.5 z m -36,-36.3 c 0,-6.9 5.6,-12.5 12.5,-12.5 6.9,0 12.5,5.6 12.5,12.5 V 344 c 0,6.9 -5.6,12.5 -12.5,12.5 -6.9,0 -12.5,-5.6 -12.5,-12.5 z m -35.9,-45 c 0,-6.9 5.6,-12.5 12.5,-12.5 6.9,0 12.5,5.6 12.5,12.5 v 215.3 c 0,6.9 -5.6,12.5 -12.5,12.5 -6.9,0 -12.5,-5.6 -12.5,-12.5 z m -36,53.4 c 0,-6.9 5.6,-12.5 12.5,-12.5 6.9,0 12.5,5.6 12.5,12.5 v 110.4 c 0,6.9 -5.6,12.5 -12.5,12.5 -6.9,0 -12.5,-5.6 -12.5,-12.5 z m -36,18.8 c 0,-6.9 5.6,-12.5 12.5,-12.5 6.9,0 12.5,5.6 12.5,12.5 v 73.7 c 0,6.9 -5.6,12.5 -12.5,12.5 -6.9,0 -12.5,-5.6 -12.5,-12.5 z M 512,864.3 c -119,0 -215.4,-96.4 -215.4,-215.4 0,-119 96.4,-215.4 215.4,-215.4 119,0 215.4,96.4 215.4,215.4 0,119 -96.4,215.4 -215.4,215.4 z" class="st3"/></g><linearGradient id="Blue_2_" x1="512" x2="512" y1="92.05" y2="932.95" gradientUnits="userSpaceOnUse"><stop style="stop-color:#c7d3d8" id="stop36" offset=".318"/><stop style="stop-color:#b0babe" id="stop38" offset=".604"/><stop style="stop-color:#8c9293" id="stop40" offset="1"/></linearGradient><path id="Blue_3_" d="m 114.5,105 v 0 h 0.1 l 797.6,2.9 c 19.7,0.1 35.6,16.2 35.5,35.9 L 945,884.4 c 0,19.6 -16.1,35.5 -35.8,35.5 L 111.6,917 C 91.9,916.9 76,900.8 76.1,881.1 L 78.7,140.5 C 78.9,121 94.9,105.1 114.5,105 m 0,-13 c -26.8,0 -48.6,21.7 -48.7,48.5 l -2.6,740.6 c -0.1,26.9 21.6,48.8 48.5,48.9 l 797.6,2.9 c 26.9,0 48.8,-21.7 48.8,-48.5 l 2.7,-740.6 C 960.9,116.9 939.2,95 912.3,94.9 L 114.7,92 c -0.1,0 -0.1,0 -0.2,0 z" class="st4" style="fill:url(#Blue_2_)"/><g id="g4888" style="display:inline"><g id="g4869" style="display:inline"><circle id="circle4867" cx="512" cy="503.5" r="28.3" class="st1" style="fill:#c8d8dc"/></g><g id="g4879" style="display:inline"><linearGradient id="linearGradient4875" x1="512" x2="512" y1="536.723" y2="814.775" gradientUnits="userSpaceOnUse"><stop style="stop-color:#c8d8dc" id="stop4871" offset="0"/><stop style="stop-color:#acb6ba" id="stop4873" offset="1"/></linearGradient><path id="path4877" d="m 639.5,550 c -0.9,-8.2 -8.4,-14.2 -16.6,-13.2 l -82.2,9.3 H 483.2 L 401,536.8 c -8.2,-0.9 -15.7,5 -16.6,13.2 -0.9,8.2 5,15.7 13.2,16.6 l 75.8,8.6 v 87.4 l -35.3,131.1 c -2.5,8.8 2.6,17.9 11.4,20.4 1.5,0.4 3,0.6 4.5,0.6 7.2,0 13.8,-4.8 15.9,-12 l 36.8,-123.1 h 10.4 L 554,802.8 c 2.1,7.3 8.7,12 15.9,12 1.5,0 3,-0.2 4.5,-0.6 8.8,-2.5 13.9,-11.6 11.4,-20.4 L 550.5,662.7 v -87.4 l 75.8,-8.6 c 8.2,-1 14.1,-8.4 13.2,-16.7 z" class="st2" style="fill:url(#SVGID_2_)"/></g></g></g></svg>