<svg xmlns="http://www.w3.org/2000/svg" xmlns:xlink="http://www.w3.org/1999/xlink" x="0" y="0" version="1.1" viewBox="0 0 1024 1024" xml:space="preserve" style="enable-background:new 0 0 1024 1024"><style type="text/css">.st0{fill:url(#SVGID_1_)}.st1{fill:url(#SVGID_2_)}.st2{fill:#323232}.st3{fill:#fff}</style><g id="Layer_2"><linearGradient id="SVGID_1_" x1="513.198" x2="513.198" y1="92" y2="932" gradientUnits="userSpaceOnUse"><stop offset="0" style="stop-color:#dbedef"/><stop offset=".26" style="stop-color:#bfcacb"/><stop offset=".581" style="stop-color:#a1a6a6"/><stop offset=".838" style="stop-color:#8f8f8e"/><stop offset="1" style="stop-color:#888786"/></linearGradient><path d="M953.2,932h-880c-22.1,0-40-17.9-40-40V132c0-22.1,17.9-40,40-40h880c22.1,0,40,17.9,40,40v760 C993.2,914.1,975.3,932,953.2,932z" class="st0"/><linearGradient id="SVGID_2_" x1="845.88" x2="146.174" y1="174.998" y2="883.791" gradientUnits="userSpaceOnUse"><stop offset="0" style="stop-color:#1e1f1f"/><stop offset=".898" style="stop-color:#040404"/></linearGradient><path d="M945.6,922H80.8c-19.9,0-36.1-16.2-36.1-36.1V138.1c0-19.9,16.2-36.1,36.1-36.1h864.9 c19.9,0,36.1,16.2,36.1,36.1v747.7C981.7,905.8,965.6,922,945.6,922z" class="st1"/><rect width="810.1" height="698.1" x="108.2" y="163" class="st2"/></g><g id="Layer_3"><g><path d="M244.4,288.6l-86.1-29.3V211l139.1,57V310l-139.1,57v-48.4L244.4,288.6z" class="st3"/><path d="M443.3,404H306.6v-38h136.7V404z" class="st3"/></g></g></svg>