<svg xmlns="http://www.w3.org/2000/svg" xmlns:xlink="http://www.w3.org/1999/xlink" id="Layer_7" x="0" y="0" version="1.1" viewBox="0 0 1024 1024" xml:space="preserve" style="enable-background:new 0 0 1024 1024"><style type="text/css">.st0{fill:url(#SVGID_1_)}.st1{fill:url(#SVGID_2_)}.st2{fill:url(#SVGID_3_)}.st3{fill:url(#SVGID_4_)}.st4{fill:url(#SVGID_5_)}.st5{fill:url(#SVGID_6_)}.st6{fill:url(#SVGID_7_)}.st7{fill:url(#SVGID_8_)}.st8{fill:url(#SVGID_9_)}.st9{fill:url(#SVGID_10_)}.st10{fill:#ccc}</style><g><linearGradient id="SVGID_1_" x1="771.234" x2="837.085" y1="218.312" y2="209.905" gradientUnits="userSpaceOnUse"><stop offset="0" style="stop-color:#000"/><stop offset=".018" style="stop-color:#00080a"/><stop offset=".128" style="stop-color:#013240"/><stop offset=".241" style="stop-color:#01576f"/><stop offset=".357" style="stop-color:#017797"/><stop offset=".474" style="stop-color:#0291b8"/><stop offset=".595" style="stop-color:#02a5d2"/><stop offset=".72" style="stop-color:#02b3e4"/><stop offset=".851" style="stop-color:#02bbef"/><stop offset="1" style="stop-color:#02bef2"/></linearGradient><polygon points="866.8 301.8 823.1 309.1 791.5 120.1 835.2 112.8" class="st0"/><linearGradient id="SVGID_2_" x1="796.459" x2="869.412" y1="410.084" y2="398.794" gradientUnits="userSpaceOnUse"><stop offset="0" style="stop-color:#000"/><stop offset=".007" style="stop-color:#040203"/><stop offset=".118" style="stop-color:#3a252e"/><stop offset=".233" style="stop-color:#694353"/><stop offset=".349" style="stop-color:#915c73"/><stop offset=".468" style="stop-color:#b2718d"/><stop offset=".59" style="stop-color:#cc81a1"/><stop offset=".716" style="stop-color:#de8db0"/><stop offset=".849" style="stop-color:#e994b8"/><stop offset=".999" style="stop-color:#ec96bb"/></linearGradient><polygon points="894.3 491.6 850.6 498.9 819 309.9 862.7 302.6" class="st1"/><linearGradient id="SVGID_3_" x1="837.18" x2="846.781" y1="292.945" y2="346.153" gradientUnits="userSpaceOnUse"><stop offset="0" style="stop-color:#000"/><stop offset=".007" style="stop-color:#040203;stop-opacity:.9929"/><stop offset=".118" style="stop-color:#3a252e;stop-opacity:.8822"/><stop offset=".233" style="stop-color:#694353;stop-opacity:.7672"/><stop offset=".349" style="stop-color:#915c73;stop-opacity:.6505"/><stop offset=".468" style="stop-color:#b2718d;stop-opacity:.5316"/><stop offset=".59" style="stop-color:#cc81a1;stop-opacity:.4097"/><stop offset=".716" style="stop-color:#de8db0;stop-opacity:.2837"/><stop offset=".849" style="stop-color:#e994b8;stop-opacity:.1508"/><stop offset=".999" style="stop-color:#ec96bb;stop-opacity:0"/></linearGradient><polygon points="894.3 491.6 850.6 498.9 819 309.9 862.7 302.6" class="st2"/><linearGradient id="SVGID_4_" x1="823.15" x2="908.262" y1="602.446" y2="585.945" gradientUnits="userSpaceOnUse"><stop offset="0" style="stop-color:#000"/><stop offset=".046" style="stop-color:#0c140c"/><stop offset=".168" style="stop-color:#2a4228"/><stop offset=".295" style="stop-color:#436b40"/><stop offset=".424" style="stop-color:#588b53"/><stop offset=".556" style="stop-color:#68a563"/><stop offset=".692" style="stop-color:#73b76d"/><stop offset=".836" style="stop-color:#7ac274"/><stop offset="1" style="stop-color:#7cc576"/></linearGradient><polygon points="923.3 681.2 879.6 688.5 848 499.5 891.7 492.2" class="st3"/><linearGradient id="SVGID_5_" x1="866.291" x2="873.695" y1="484.044" y2="524.589" gradientUnits="userSpaceOnUse"><stop offset="0" style="stop-color:#000"/><stop offset=".046" style="stop-color:#0c140c;stop-opacity:.954"/><stop offset=".168" style="stop-color:#2a4228;stop-opacity:.8317"/><stop offset=".295" style="stop-color:#436b40;stop-opacity:.7052"/><stop offset=".424" style="stop-color:#588b53;stop-opacity:.5763"/><stop offset=".556" style="stop-color:#68a563;stop-opacity:.4442"/><stop offset=".692" style="stop-color:#73b76d;stop-opacity:.3076"/><stop offset=".836" style="stop-color:#7ac274;stop-opacity:.1636"/><stop offset="1" style="stop-color:#7cc576;stop-opacity:0"/></linearGradient><polygon points="923.3 681.1 879.6 688.4 848 499.4 891.7 492.1" class="st4"/></g><linearGradient id="SVGID_6_" x1="560.231" x2="448.055" y1="814.755" y2="96.587" gradientUnits="userSpaceOnUse"><stop offset="0" style="stop-color:#e2e2e2"/><stop offset=".152" style="stop-color:#e4e4e4"/><stop offset="1" style="stop-color:#e7e7e7"/></linearGradient><path d="M908.2,752.7C897.6,682.6,799.5,98.4,799.5,98.4s-16.4-67.8-71.3-60.8c-54.9,7-586.5,92.3-586.5,92.3	s-20.9,8-27.8,4c-6.9-3.9-7.7,10-7.7,10v37.5l114.5,747.8c0,0,2.5,7.4,1.8,12.3c-0.7,4.9,18.2,46.9,25.9,45.5s10.2-4.2,10.2-4.2	l21-0.7l10.5-2.5l-2.1-12.3c0,0-20.5,4.7-37.4,6.4c-17.4-5.5-15.5-40.8-16.9-46.8c-0.2-4.2,45.2-11.4,45.2-11.4v0L841.6,831	C841.6,831,918.7,822.8,908.2,752.7z" class="st5"/><linearGradient id="SVGID_7_" x1="269.519" x2="230.112" y1="982.477" y2="919.702" gradientUnits="userSpaceOnUse"><stop offset="0" style="stop-color:#777b79"/><stop offset=".236" style="stop-color:#646765"/><stop offset=".695" style="stop-color:#434442"/><stop offset=".784" style="stop-color:#464745;stop-opacity:.7068"/><stop offset=".861" style="stop-color:#505250;stop-opacity:.4536"/><stop offset=".933" style="stop-color:#616462;stop-opacity:.216"/><stop offset=".999" style="stop-color:#777b79;stop-opacity:0"/></linearGradient><path d="M250.6,973.8c-17.4-5.5-15.5-40.8-16.9-46.8c0-0.5,0.7-1.2,2.1-1.8l-3.2-5.1l-12.9,2.5v0l1,6.5	c0,0,2.5,7.4,1.8,12.3c-0.7,4.9,18.2,46.9,25.9,45.5s10.2-4.2,10.2-4.2l21-0.7l10.5-2.5l-2.1-12.3	C288,967.4,267.5,972.1,250.6,973.8z" class="st6"/><linearGradient id="SVGID_8_" x1="237.073" x2="121.857" y1="897.307" y2="140.67" gradientUnits="userSpaceOnUse"><stop offset="0" style="stop-color:#d3d3d3"/><stop offset=".999" style="stop-color:#d2d2d2"/></linearGradient><path d="M249.9,921.2L130.4,133.5c-6.1,1.5-13,2.5-16.5,0.6c-1.1-0.6-2-0.8-2.9-0.6l122.6,793.7	C233.6,925.4,241,923.2,249.9,921.2z" class="st7"/><g><linearGradient id="SVGID_9_" x1="878.556" x2="282.267" y1="840.427" y2="946.069" gradientUnits="userSpaceOnUse"><stop offset="0" style="stop-color:#646563"/><stop offset=".695" style="stop-color:#434442"/><stop offset=".784" style="stop-color:#464745"/><stop offset=".862" style="stop-color:#505250"/><stop offset=".934" style="stop-color:#616462"/><stop offset="1" style="stop-color:#777b79"/></linearGradient><path d="M908.2,814.6c-0.8-5.3-2.1-13.7-3.7-24.8c-1.6,3.8-3.5,7.2-5.7,10.3c0,0,0,0,0,0l0,0 c8.8,76.3-57.4,80.5-57.4,80.5S417.6,947.8,288,967.7l2.1,11.9l551.4-86.8C841.6,892.9,918.7,884.7,908.2,814.6z" class="st8"/></g><linearGradient id="SVGID_10_" x1="271.618" x2="902.112" y1="952.749" y2="833.503" gradientUnits="userSpaceOnUse"><stop offset="0" style="stop-color:#a5a3a1"/><stop offset=".493" style="stop-color:#a7a5a3"/><stop offset=".671" style="stop-color:#adabaa"/><stop offset=".797" style="stop-color:#b9b7b5"/><stop offset=".899" style="stop-color:#c9c8c6"/><stop offset=".969" style="stop-color:#d9d8d7"/></linearGradient><path d="M898.7,800.1c-19,26.8-57.1,30.9-57.1,30.9l-562.6,84.6v0c0,0-37.3,6-44.1,10.2c-0.4,0.8-0.5,1.3-0.5,1.3	s0.7,28.3,8.2,40.6c1.7,2.3,3.7,4.2,6.1,5.4c0.8,0.2,1.6,0.3,2.5,0.2c2-0.2,13.2-1.9,31.2-4.6c3.4-0.7,5.6-0.9,5.6-0.9	c129.6-19.9,553.3-87.1,553.3-87.1S907.5,876.5,898.7,800.1L898.7,800.1z" class="st9"/><path d="M739.4,406.4c-20.3-128-140.4-215.3-268.4-195c-128,20.3-215.3,140.4-195,268.4	c20.3,128,140.4,215.3,268.4,195C672.4,654.5,759.7,534.3,739.4,406.4z M694.9,540.1l-1.6,0.4c0,0,0,0,0,0s-105.1-28.7-109.1-28.1	c-4,0.6-9.3-4.8-11.9-11.2c-2.6-6.4-10.9-44.4-10.9-44.4l0.6-27.2c0,0,8.8,7.2,13.9-11c5.9-27.9-9.4-37-9.4-37l2.5-6.3	c0,0-6.5-44.9-14.5-59.8c-8-14.9-35.9-23.2-75.3-20.5c-39.4,2.7-53.1,40.8-58.7,53.4c-5.6,12.6,0.7,22,0.7,22l-2.1,17.5l2.8,2.7	c0,0,1.3,6,3.9,21.1c-2.1,49.4,25.7,41.4,25.7,41.4l7.7,14.4c0,0,6.4,40.3,8.2,52s-4.8,13.8-4.8,13.8l-86.4,74.6	c-39.7-31.7-68.1-77.7-76.7-131.7c-18.2-115,60.2-223,175.2-241.2c115-18.2,223,60.2,241.2,175.2	C723.2,456.3,714.9,501.5,694.9,540.1z" class="st10"/></svg>