<svg xmlns="http://www.w3.org/2000/svg" xmlns:svg="http://www.w3.org/2000/svg" id="remmina" x="0" y="0" version="1.1" viewBox="0 0 1024 1024" xml:space="preserve" style="enable-background:new 0 0 1024 1024"><metadata id="metadata120"/><defs id="defs118"><filter style="color-interpolation-filters:sRGB" id="filter216"><feFlood id="feFlood206" flood-color="#000" flood-opacity=".059" result="flood"/><feComposite id="feComposite208" in="flood" in2="SourceGraphic" operator="in" result="composite1"/><feGaussianBlur id="feGaussianBlur210" in="composite1" result="blur" stdDeviation="5"/><feOffset id="feOffset212" dx="10" dy="0" result="offset"/><feComposite id="feComposite214" in="SourceGraphic" in2="offset" operator="over" result="fbSourceGraphic"/><feColorMatrix id="feColorMatrix218" in="fbSourceGraphic" result="fbSourceGraphicAlpha" values="0 0 0 -1 0 0 0 0 -1 0 0 0 0 -1 0 0 0 0 1 0"/><feFlood id="feFlood220" flood-color="#000" flood-opacity=".059" in="fbSourceGraphic" result="flood"/><feComposite id="feComposite222" in="flood" in2="fbSourceGraphic" operator="in" result="composite1"/><feGaussianBlur id="feGaussianBlur224" in="composite1" result="blur" stdDeviation="5"/><feOffset id="feOffset226" dx="10" dy="0" result="offset"/><feComposite id="feComposite228" in="fbSourceGraphic" in2="offset" operator="over" result="composite2"/></filter><filter style="color-interpolation-filters:sRGB" id="filter240"><feFlood id="feFlood230" flood-color="#000" flood-opacity=".059" result="flood"/><feComposite id="feComposite232" in="flood" in2="SourceGraphic" operator="in" result="composite1"/><feGaussianBlur id="feGaussianBlur234" in="composite1" result="blur" stdDeviation="5"/><feOffset id="feOffset236" dx="10" dy="0" result="offset"/><feComposite id="feComposite238" in="SourceGraphic" in2="offset" operator="over" result="composite2"/></filter><filter style="color-interpolation-filters:sRGB" id="filter336"><feFlood id="feFlood326" flood-color="#000" flood-opacity=".059" result="flood"/><feComposite id="feComposite328" in="flood" in2="SourceGraphic" operator="in" result="composite1"/><feGaussianBlur id="feGaussianBlur330" in="composite1" result="blur" stdDeviation="5"/><feOffset id="feOffset332" dx="10" dy="0" result="offset"/><feComposite id="feComposite334" in="SourceGraphic" in2="offset" operator="over" result="composite2"/></filter></defs><style id="style66" type="text/css">.st0{fill:url(#SVGID_1_)}.st1{fill:url(#SVGID_2_)}.st2{fill:none;stroke:#000;stroke-width:50;stroke-miterlimit:10}.st3{fill:url(#SVGID_3_)}.st4{fill:url(#SVGID_4_)}.st5{fill:url(#SVGID_5_)}</style><g id="g113"><linearGradient id="SVGID_1_" x1="65.999" x2="959.001" y1="530.588" y2="493.411" gradientTransform="matrix(0.3672 0.9301 -0.9301 0.3672 800.523 -152.7127)" gradientUnits="userSpaceOnUse"><stop style="stop-color:#f7f6f7" id="stop68" offset="0"/><stop style="stop-color:#f1f0f2" id="stop70" offset=".148"/><stop style="stop-color:#d7d6dc" id="stop72" offset=".898"/></linearGradient><circle id="circle75" cx="512.5" cy="512" r="446.9" class="st0"/><linearGradient id="SVGID_2_" x1="107.678" x2="916.129" y1="512.491" y2="512.491" gradientTransform="matrix(-0.1929 -0.9812 0.9812 -0.1929 108.3984 1113.1603)" gradientUnits="userSpaceOnUse"><stop style="stop-color:#19aa72" id="stop77" offset="0"/><stop style="stop-color:#4f92ce" id="stop79" offset="1"/></linearGradient><circle id="circle82" cx="512.5" cy="512" r="404.2" class="st1"/><path id="path84" d="M512.5,512" class="st2"/><linearGradient id="SVGID_3_" x1="330.738" x2="696.571" y1="101.135" y2="928.084" gradientUnits="userSpaceOnUse"><stop style="stop-color:#f7f6f7" id="stop86" offset="0"/><stop style="stop-color:#f1f0f2" id="stop88" offset=".147"/><stop style="stop-color:#d7d6dc" id="stop90" offset=".891"/></linearGradient><path id="path93" d="M512.5,840.5c-87.7,0-170.2-34.2-232.3-96.2c-62-62-96.2-144.5-96.2-232.3c0-87.7,34.2-170.2,96.2-232.3 s144.5-96.2,232.3-96.2c87.7,0,170.2,34.2,232.3,96.2c62,62,96.2,144.5,96.2,232.3c0,87.7-34.2,170.2-96.2,232.3 C682.7,806.3,600.2,840.5,512.5,840.5z M512.5,228.5C356.2,228.5,229,355.7,229,512s127.2,283.5,283.5,283.5S796,668.3,796,512 S668.8,228.5,512.5,228.5z" class="st3" style="filter:url(#filter336)"/><linearGradient id="SVGID_4_" x1="266.536" x2="734.536" y1="131.13" y2="1123.13" gradientUnits="userSpaceOnUse"><stop style="stop-color:#f7f6f7" id="stop95" offset="0"/><stop style="stop-color:#f1f0f2" id="stop97" offset=".165"/><stop style="stop-color:#d7d6dc" id="stop99" offset="1"/></linearGradient><path id="path102" d="M368.2,565.4c-7.6,0-15-3.8-19.2-10.8c-6.5-10.6-3.2-24.4,7.4-30.9l113-69.1l-113-69.1 c-10.6-6.5-13.9-20.3-7.4-30.9c6.5-10.6,20.3-13.9,30.9-7.4l142.9,87.5c7,4.3,11.2,11.8,11.2,20s-4.2,15.7-11.2,20L379.9,562 C376.2,564.3,372.2,565.4,368.2,565.4z M499.4,472.9L499.4,472.9L499.4,472.9z" class="st4" style="filter:url(#filter216)"/><linearGradient id="SVGID_5_" x1="374.962" x2="842.962" y1="79.978" y2="1071.978" gradientUnits="userSpaceOnUse"><stop style="stop-color:#f7f6f7" id="stop104" offset="0"/><stop style="stop-color:#f1f0f2" id="stop106" offset=".165"/><stop style="stop-color:#d7d6dc" id="stop108" offset="1"/></linearGradient><path id="path111" d="M656.8,680.3c-4,0-8.1-1.1-11.7-3.3l-142.9-87.5c-7-4.3-11.2-11.8-11.2-20s4.2-15.7,11.2-20l143-87.5 c10.6-6.5,24.4-3.2,30.9,7.4c6.5,10.6,3.2,24.4-7.4,30.9l-113,69.1l113,69.1c10.6,6.5,13.9,20.3,7.4,30.9 C671.8,676.5,664.4,680.3,656.8,680.3z" class="st5" style="filter:url(#filter240)"/></g></svg>