<svg xmlns="http://www.w3.org/2000/svg" xmlns:svg="http://www.w3.org/2000/svg" id="svg10" width="1376" height="1393.333" version="1.1" viewBox="0 0 1376 1393.333" xml:space="preserve"><metadata id="metadata16"/><defs id="defs14"><linearGradient id="linearGradient36" x1="0" x2="1" y1="0" y2="0" gradientTransform="matrix(2.6666665,-881.33331,-881.33331,-2.6666665,511.14752,979.99841)" gradientUnits="userSpaceOnUse" spreadMethod="pad"><stop style="stop-opacity:1;stop-color:#f7f6f7" id="stop32" offset="0"/><stop style="stop-opacity:1;stop-color:#d7d6dc" id="stop34" offset="1"/></linearGradient><linearGradient id="linearGradient56" x1="0" x2="1" y1="0" y2="0" gradientTransform="matrix(-4.0540199,895.93848,895.93848,4.0540199,514.53784,82.639877)" gradientUnits="userSpaceOnUse" spreadMethod="pad"><stop style="stop-opacity:1;stop-color:#f49211" id="stop52" offset="0"/><stop style="stop-opacity:1;stop-color:#f2ad39" id="stop54" offset="1"/></linearGradient><linearGradient id="linearGradient80" x1="0" x2="1" y1="0" y2="0" gradientTransform="matrix(-9.333334,-892,-892,9.333334,517.96069,977.30933)" gradientUnits="userSpaceOnUse" spreadMethod="pad"><stop style="stop-opacity:1;stop-color:#f7f6f7" id="stop72" offset="0"/><stop style="stop-opacity:1;stop-color:#d7d6dc" id="stop74" offset=".81"/><stop style="stop-opacity:1;stop-color:#d7d6dc" id="stop76" offset=".898"/><stop style="stop-opacity:1;stop-color:#d7d6dc" id="stop78" offset="1"/></linearGradient><filter style="color-interpolation-filters:sRGB" id="filter106"><feFlood id="feFlood96" flood-color="#000" flood-opacity=".059" result="flood"/><feComposite id="feComposite98" in="flood" in2="SourceGraphic" operator="in" result="composite1"/><feGaussianBlur id="feGaussianBlur100" in="composite1" result="blur" stdDeviation="5"/><feOffset id="feOffset102" dx="10" dy="0" result="offset"/><feComposite id="feComposite104" in="SourceGraphic" in2="offset" operator="over" result="fbSourceGraphic"/><feColorMatrix id="feColorMatrix108" in="fbSourceGraphic" result="fbSourceGraphicAlpha" values="0 0 0 -1 0 0 0 0 -1 0 0 0 0 -1 0 0 0 0 1 0"/><feFlood id="feFlood110" flood-color="#000" flood-opacity=".059" in="fbSourceGraphic" result="flood"/><feComposite id="feComposite112" in="flood" in2="fbSourceGraphic" operator="in" result="composite1"/><feGaussianBlur id="feGaussianBlur114" in="composite1" result="blur" stdDeviation="5"/><feOffset id="feOffset116" dx="10" dy="0" result="offset"/><feComposite id="feComposite118" in="fbSourceGraphic" in2="offset" operator="over" result="composite2"/></filter></defs><g id="g18" transform="matrix(1.3333333,0,0,-1.3333333,0,1393.3333)"><g id="g20"><g id="g22"><g id="g28"><g id="g30"><path style="fill:url(#linearGradient36);stroke:none" id="path38" d="M 348.393,948.658 C 118.832,858.024 6.209,598.455 96.843,368.894 v 0 C 187.476,139.332 447.045,26.709 676.607,117.343 v 0 c 229.561,90.634 342.184,350.203 251.55,579.764 v 0 C 858.794,872.795 690.457,979.99 512.375,980 v 0 c -54.607,0.003 -110.109,-10.073 -163.982,-31.342"/></g></g></g></g><g id="g40"><g id="g42"><g id="g48"><g id="g50"><path style="fill:url(#linearGradient56);stroke:none" id="path58" d="M 434.514,929.632 C 215.46,886.56 72.798,674.067 115.869,455.014 v 0 C 158.94,235.96 371.433,93.298 590.486,136.369 v 0 c 219.054,43.07 361.716,255.565 318.644,474.618 v 0 C 871.239,803.701 702.192,937.29 512.937,937.302 v 0 c -25.866,0.002 -52.085,-2.492 -78.423,-7.67"/></g></g></g></g><g id="g60" style="filter:url(#filter106)"><g id="g62"><g id="g68"><g id="g70"><path style="fill:url(#linearGradient80);stroke:none" id="path82" d="m 412.505,746.258 c -25.286,-22.496 -38.139,-53.641 -38.554,-93.429 v 0 h 90.532 c 0.414,16.687 5.253,29.774 14.516,39.266 v 0 c 9.258,9.493 21.588,14.238 36.993,14.238 v 0 c 32.466,0 48.699,-17.618 48.699,-52.845 v 0 c 0,-11.677 -3.122,-22.779 -9.365,-33.305 v 0 c -6.243,-10.527 -18.784,-24.175 -37.617,-40.944 v 0 c -18.838,-16.77 -31.794,-33.804 -38.867,-51.089 v 0 c -7.077,-17.293 -10.613,-40.52 -10.613,-69.685 v 0 h 79.917 l 1.248,19.062 c 2.289,20.413 11.341,38.223 27.159,53.432 v 0 l 25.287,24.061 c 19.77,19.165 33.609,36.613 41.52,52.339 v 0 c 7.907,15.726 11.862,32.446 11.862,50.153 v 0 c 0,38.954 -12.174,69.108 -36.524,90.463 v 0 c -24.35,21.355 -58.587,32.033 -102.706,32.033 v 0 c -43.705,0 -78.2,-11.253 -103.487,-33.75 m 60.874,-349.092 c -9.472,-9.023 -14.203,-20.486 -14.203,-34.383 v 0 c 0,-13.692 4.628,-24.999 13.891,-33.915 v 0 c 9.258,-8.922 21.487,-13.379 36.681,-13.379 v 0 c 15.19,0 27.418,4.457 36.681,13.379 v 0 c 9.257,8.916 13.892,20.223 13.892,33.915 v 0 c 0,13.897 -4.737,25.36 -14.205,34.383 v 0 c -9.471,9.025 -21.592,13.536 -36.368,13.536 v 0 c -14.779,0 -26.901,-4.511 -36.369,-13.536"/></g></g></g></g></g></svg>