<svg xmlns="http://www.w3.org/2000/svg" xmlns:xlink="http://www.w3.org/1999/xlink" x="0" y="0" version="1.1" viewBox="0 0 1024 1024" xml:space="preserve" style="enable-background:new 0 0 1024 1024"><style type="text/css">.st0{fill:url(#SVGID_1_)}.st1{fill:url(#SVGID_2_)}.st2{fill:url(#SVGID_3_)}.st3{fill:#104a8c}.st4{fill:#ff074a}.st5{fill:url(#SVGID_4_)}.st6{fill:url(#SVGID_5_)}.st7{fill:url(#SVGID_6_)}.st8{fill:url(#SVGID_7_)}.st9{fill:url(#SVGID_8_)}.st10{fill:url(#SVGID_9_)}.st11{fill:url(#SVGID_10_)}.st12{fill:url(#SVGID_11_)}.st13{fill:url(#SVGID_12_)}.st14{fill:url(#SVGID_13_)}.st15{fill:url(#SVGID_14_)}.st16{fill:url(#SVGID_15_)}.st17{fill:url(#SVGID_16_)}.st18{fill:url(#SVGID_17_)}.st19{fill:url(#SVGID_18_)}.st20{fill:url(#SVGID_19_)}.st20,.st21,.st22{opacity:.5;enable-background:new}.st21{fill:url(#SVGID_20_)}.st22{fill:url(#SVGID_21_)}.st23{fill:url(#SVGID_22_)}.st24{fill:url(#SVGID_23_)}.st25{fill:url(#SVGID_24_)}.st26{fill:url(#SVGID_25_)}.st27{fill:url(#SVGID_26_)}.st28{fill:url(#SVGID_27_)}.st29{fill:url(#SVGID_28_)}.st30{fill:url(#SVGID_29_)}.st31{fill:url(#SVGID_30_)}</style><g id="Layer_1"><g><linearGradient id="SVGID_1_" x1="482.417" x2="482.417" y1="919.967" y2="159.819" gradientTransform="matrix(1 0 0 -1 0 1024)" gradientUnits="userSpaceOnUse"><stop offset="0" style="stop-color:#dbedef"/><stop offset=".26" style="stop-color:#bfcacb"/><stop offset=".581" style="stop-color:#a1a6a6"/><stop offset=".838" style="stop-color:#8f8f8e"/><stop offset="1" style="stop-color:#888786"/></linearGradient><path d="M880.6,864.2H84.2C64.2,864.2,48,848,48,828V140.2c0-20,16.2-36.2,36.2-36.2h796.3c20,0,36.2,16.2,36.2,36.2 V828C916.8,848,900.6,864.2,880.6,864.2z" class="st0"/><linearGradient id="SVGID_2_" x1="783.481" x2="150.29" y1="844.85" y2="203.435" gradientTransform="matrix(1 0 0 -1 0 1024)" gradientUnits="userSpaceOnUse"><stop offset="0" style="stop-color:#1e1f1f"/><stop offset=".898" style="stop-color:#040404"/></linearGradient><path d="M873.7,855.1H91.1c-18,0-32.7-14.7-32.7-32.7V145.8c0-18,14.7-32.7,32.7-32.7h782.7c18,0,32.7,14.7,32.7,32.7 v676.6C906.4,840.5,891.8,855.1,873.7,855.1z" class="st1"/></g><g id="Layer_4"><radialGradient id="SVGID_3_" cx="482.462" cy="484.152" r="342.147" gradientUnits="userSpaceOnUse"><stop offset="0" style="stop-color:#fff"/><stop offset="1" style="stop-color:#ddd"/></radialGradient><rect width="733.1" height="631.7" x="115.9" y="168.3" class="st2"/></g></g><g id="Layer_4_2_"><path d="M821.1,168.3L653,402.7L517.4,295.2c-2.1-1.7-4.8-2.4-7.5-2.1c-2.7,0.3-5.1,1.7-6.7,3.9L340.1,511.2L248,422 c-2.3-2.2-5.4-3.2-8.5-2.7c-3.1,0.5-5.8,2.4-7.3,5.2L115.9,646.4v31.5c3.6,0,7.1-2,8.9-5.4l118.9-226.9l90.5,87.8 c2.1,2,4.9,3,7.7,2.8c2.9-0.2,5.5-1.6,7.2-3.9l163.8-215.2l135.9,107.7c2.1,1.7,4.9,2.4,7.6,2.1c2.7-0.4,5.1-1.9,6.7-4.1 l182.5-254.6H821.1z" class="st3"/></g><g id="Layer_5_1_"><path d="M849,461.1l-151.8,91.1l-164.7-58.8c-3.2-1.2-6.9-0.6-9.6,1.6L377.3,609.8l-106.1-44.3c-3-1.2-6.4-1-9.1,0.7 l-146.2,89.9v21.7c0,0,0,0,0,0c1.8,0,3.6-0.5,5.2-1.5l147-90.4L375,630.6c3.3,1.4,7.2,0.9,10-1.4l146-115.1l163.9,58.5 c2.8,1,5.9,0.7,8.5-0.8L849,484.5V461.1z" class="st4"/></g><g id="Layer_2"><g id="Layer_12_1_"><radialGradient id="SVGID_4_" cx="781.495" cy="265.588" r="56.529" gradientTransform="matrix(0.9979 -6.551694e-02 -3.252485e-02 -0.4954 -0.3356 1097.7083)" gradientUnits="userSpaceOnUse"><stop offset=".317" style="stop-color:#727375"/><stop offset=".521" style="stop-color:#727375"/><stop offset=".724" style="stop-color:#747576"/><stop offset=".797" style="stop-color:#7b7c7b"/><stop offset=".85" style="stop-color:#868784"/><stop offset=".892" style="stop-color:#979890"/><stop offset=".927" style="stop-color:#adaea0"/><stop offset=".934" style="stop-color:#b2b3a4"/><stop offset=".974" style="stop-color:#b0b1a3"/><stop offset="1" style="stop-color:#9da5b0"/></radialGradient><path d="M744.3,909.7c0,0,2.3,29.5,36.3,28.3s41.8-12.3,41.8-12.3s6.1-7.3,4.6-16.1 C825.5,900.9,744.3,909.7,744.3,909.7z" class="st5"/><radialGradient id="SVGID_5_" cx="644.164" cy="-235.776" r="57.206" gradientTransform="matrix(-0.9826 0.186 0.1329 0.702 1464.2773 945.8117)" gradientUnits="userSpaceOnUse"><stop offset=".521" style="stop-color:#727375;stop-opacity:0"/><stop offset=".724" style="stop-color:#747576;stop-opacity:.1968"/><stop offset=".797" style="stop-color:#7b7c7b;stop-opacity:.2676"/><stop offset=".85" style="stop-color:#868784;stop-opacity:.3182"/><stop offset=".892" style="stop-color:#979890;stop-opacity:.359"/><stop offset=".927" style="stop-color:#adaea0;stop-opacity:.3936"/><stop offset=".934" style="stop-color:#b2b3a4;stop-opacity:.4"/><stop offset=".974" style="stop-color:#b0b1a3;stop-opacity:.6"/><stop offset="1" style="stop-color:#b2b3a4"/></radialGradient><path d="M744.3,909.7c0,0,2.3,29.5,36.3,28.3s41.8-12.3,41.8-12.3s6.1-7.3,4.6-16.1 C825.5,900.9,744.3,909.7,744.3,909.7z" class="st6"/><radialGradient id="SVGID_6_" cx="629.899" cy="-339.52" r="20.912" gradientTransform="matrix(-0.8848 0.466 0.2036 0.3865 1441.6632 757.066)" gradientUnits="userSpaceOnUse"><stop offset="0" style="stop-color:#8b8986"/><stop offset=".717" style="stop-color:#8b8986;stop-opacity:0"/></radialGradient><path d="M744.3,909.7c0,0,2.3,29.5,36.3,28.3s41.8-12.3,41.8-12.3s6.1-7.3,4.6-16.1 C825.5,900.9,744.3,909.7,744.3,909.7z" class="st7"/><radialGradient id="SVGID_7_" cx="558.257" cy="-13.927" r="20.062" gradientTransform="matrix(1.973300e-02 0.9998 2.2362 -4.413522e-02 808.0686 349.4691)" gradientUnits="userSpaceOnUse"><stop offset="0" style="stop-color:#000;stop-opacity:.4"/><stop offset=".209" style="stop-color:#131313;stop-opacity:.3164"/><stop offset=".631" style="stop-color:#434445;stop-opacity:.1474"/><stop offset="1" style="stop-color:#727375;stop-opacity:0"/></radialGradient><path d="M744.3,909.7c0,0,2.3,29.5,36.3,28.3s41.8-12.3,41.8-12.3s6.1-7.3,4.6-16.1 C825.5,900.9,744.3,909.7,744.3,909.7z" class="st8"/></g><g id="Layer_5_2_"><linearGradient id="SVGID_8_" x1="787.002" x2="787.002" y1="744.621" y2="435.613" gradientTransform="matrix(1 0 0 -1 0 1024)" gradientUnits="userSpaceOnUse"><stop offset="0" style="stop-color:#fffb6c"/><stop offset=".223" style="stop-color:#fef669"/><stop offset=".492" style="stop-color:#fae761"/><stop offset=".786" style="stop-color:#f3cf53"/><stop offset="1" style="stop-color:#edb847"/></linearGradient><path d="M787,599.7L787,599.7L787,599.7c151.9,1.4,144.2-19.8,145-19.3c27.4-32.8,43.9-75,43.9-121 c0-104.3-84.6-189-189-189s-189,84.6-189,189c0,46.1,16.5,88.3,43.9,121C642.8,579.9,635.1,601.1,787,599.7z" class="st9"/><radialGradient id="SVGID_9_" cx="787.002" cy="571.538" r="169.642" gradientTransform="matrix(1 0 0 -1 0 1024)" gradientUnits="userSpaceOnUse"><stop offset="0" style="stop-color:#fffef8"/><stop offset=".168" style="stop-color:#fffde5"/><stop offset=".506" style="stop-color:#fef9b5"/><stop offset=".542" style="stop-color:#fef9b0"/><stop offset=".722" style="stop-color:#fef8ae"/><stop offset=".814" style="stop-color:#fef6a6"/><stop offset=".885" style="stop-color:#fdf299"/><stop offset=".946" style="stop-color:#fcec86"/><stop offset="1" style="stop-color:#fbe56e"/></radialGradient><path d="M787,592.7L787,592.7L787,592.7c145.5,1.3,138-19,138.8-18.5c26.2-31.4,42-71.8,42-115.9 c0-99.9-80.9-180.8-180.8-180.8s-180.8,80.9-180.8,180.8c0,44.1,15.8,84.5,42,115.9C649,573.7,641.5,594,787,592.7z" class="st10"/><linearGradient id="SVGID_10_" x1="787.002" x2="787.002" y1="438.109" y2="463.784" gradientTransform="matrix(1 0 0 -1 0 1024)" gradientUnits="userSpaceOnUse"><stop offset="0" style="stop-color:#fce46e;stop-opacity:.6"/><stop offset="1" style="stop-color:#fbe56e;stop-opacity:0"/></linearGradient><path d="M787,592.7L787,592.7L787,592.7c145.5,1.3,138-19,138.8-18.5c26.2-31.4,42-71.8,42-115.9 c0-99.9-80.9-180.8-180.8-180.8s-180.8,80.9-180.8,180.8c0,44.1,15.8,84.5,42,115.9C649,573.7,641.5,594,787,592.7z" class="st11"/></g><g id="Layer_6_1_"><linearGradient id="SVGID_11_" x1="708.783" x2="860.22" y1="155.095" y2="155.095" gradientTransform="matrix(1 0 0 -1 0 1024)" gradientUnits="userSpaceOnUse"><stop offset="0" style="stop-color:#999795"/><stop offset=".149" style="stop-color:#9b9a98"/><stop offset=".257" style="stop-color:#a3a2a1"/><stop offset=".351" style="stop-color:#b1b1b1"/><stop offset=".424" style="stop-color:#c0c2c3"/><stop offset=".51" style="stop-color:#c0c2c3"/><stop offset=".594" style="stop-color:#c0c2c3"/><stop offset=".727" style="stop-color:#aeafae"/><stop offset=".887" style="stop-color:#9f9d9c"/><stop offset="1" style="stop-color:#999795"/></linearGradient><path d="M713.5,825.8c0,0-13.5,9.3,1.6,21c-15.3,10.5,0,22.1,0,22.1s-17.9,14.2,4.9,24.7c15.3,17.5,24.7,16,24.7,16 s34.7,14.1,85.3,0.1c26.6-7.8,25.2-24.6,25.2-24.6s18.6-8.9,6.1-26.6c10.7-13.1,0-22.8,0-22.8s6.2-6.2,4.7-11.6 C864.7,818.6,713.5,825.8,713.5,825.8z" class="st12"/></g><g id="Layer_22_1_"><linearGradient id="SVGID_12_" x1="841.223" x2="814.228" y1="132.119" y2="124.973" gradientTransform="matrix(1 0 0 -1 0 1024)" gradientUnits="userSpaceOnUse"><stop offset=".283" style="stop-color:#a4a197"/><stop offset=".87" style="stop-color:#a9a7a3;stop-opacity:.4259"/><stop offset=".984" style="stop-color:#aaa8a6;stop-opacity:.3141"/><stop offset="1" style="stop-color:#aaa8a6;stop-opacity:.3"/></linearGradient><path d="M848.5,887.1c0,0-19,9.1-32.9,9.6c-13.9,0.5,5.8,1.8,5.8,1.8s27.1-3.8,27.1-7.6 C848.5,887.1,848.5,887.1,848.5,887.1z" class="st13"/><linearGradient id="SVGID_13_" x1="729.943" x2="766.14" y1="129.513" y2="127.488" gradientTransform="matrix(1 0 0 -1 0 1024)" gradientUnits="userSpaceOnUse"><stop offset=".056" style="stop-color:#a4a197"/><stop offset="1" style="stop-color:#aaa8a6;stop-opacity:.3"/></linearGradient><path d="M720.8,890.4c0,0,16.7,7.2,41.3,6.9c24.6-0.3-10.4,5.1-37.9-1.2C714,888.9,720.8,890.4,720.8,890.4z" class="st14"/></g><g id="Layer_21_1_"><linearGradient id="SVGID_14_" x1="822.201" x2="848.176" y1="108.826" y2="134.639" gradientTransform="matrix(1 0 0 -1 0 1024)" gradientUnits="userSpaceOnUse"><stop offset=".056" style="stop-color:#fefefe;stop-opacity:0"/><stop offset=".432" style="stop-color:#ccd5e0;stop-opacity:.3988"/><stop offset=".809" style="stop-color:#a1b1c5;stop-opacity:.7976"/><stop offset="1" style="stop-color:#90a3bb"/></linearGradient><path d="M845.3,881.6c0,0-1.5,19.1-18.2,25.7c-16.7,6.6,7.5,2.8,15.3-3.1c6-3.9,12.4-9.5,12.8-18.5 C855.6,876.7,845.3,881.6,845.3,881.6z" class="st15"/></g><g id="Layer_17_1_"><linearGradient id="SVGID_15_" x1="864.319" x2="809.826" y1="195.067" y2="174.869" gradientTransform="matrix(1 0 0 -1 0 1024)" gradientUnits="userSpaceOnUse"><stop offset="0" style="stop-color:#95aac3"/><stop offset=".369" style="stop-color:#bfdae6"/><stop offset=".454" style="stop-color:#d0dee4;stop-opacity:.9118"/><stop offset=".55" style="stop-color:#dae0e3;stop-opacity:.8115"/><stop offset=".657" style="stop-color:#dee1e3;stop-opacity:.7"/><stop offset="1" style="stop-color:#e0e2e3;stop-opacity:0"/></linearGradient><path d="M810.2,846.8c19.4,0.9,33.2-6,34.3-6.7c-7.1,7.1-27.5,12.4-27.5,12.4s32-2.5,44-15.6 c5.7-6.6,6.5-12.3,4.4-14C857,816.3,800.7,844.2,810.2,846.8z" class="st16"/></g><g id="Layer_18_1_"><linearGradient id="SVGID_16_" x1="708.531" x2="843.397" y1="143.486" y2="143.486" gradientTransform="matrix(1 0 0 -1 0 1024)" gradientUnits="userSpaceOnUse"><stop offset="0" style="stop-color:#90a3bb"/><stop offset=".069" style="stop-color:#92a6bd"/><stop offset=".12" style="stop-color:#9aafc4"/><stop offset=".164" style="stop-color:#a7bfcf"/><stop offset=".204" style="stop-color:#b9d5df"/><stop offset=".242" style="stop-color:#d1f2f4"/><stop offset=".244" style="stop-color:#d2f3f5"/><stop offset=".305" style="stop-color:#d8f4f6"/><stop offset=".385" style="stop-color:#e8f9fa"/><stop offset=".46" style="stop-color:#fefefe"/><stop offset=".944" style="stop-color:#fefefe;stop-opacity:0"/></linearGradient><path d="M727.1,863.8c0,0,6.1,0.3,5.8,3.7c-0.3,3.4-10.8,1.7-10.8,1.7s7.8,8.4,9.6,11.4c1.7,3,41.6,10.4,58.5,8 c16.8-2.3,43.2-4.5,46.5-8c3.2-3.5,13.9,3.5-0.4,4.2c-14.4,0.8-62.8,13.1-91.1,7.4c-28.3-5.8-20.6,6.1-20.6,6.1s-2-2.8-4.3-5 c-15.9-7.1-13.2-17.5-4.9-24.7C721.6,859,727.1,863.8,727.1,863.8z" class="st17"/></g><g id="Layer_20_1_"><linearGradient id="SVGID_17_" x1="732.71" x2="843.098" y1="117.647" y2="117.647" gradientTransform="matrix(1 0 0 -1 0 1024)" gradientUnits="userSpaceOnUse"><stop offset=".036" style="stop-color:#fefefe;stop-opacity:0"/><stop offset=".46" style="stop-color:#fefefe"/><stop offset=".944" style="stop-color:#fefefe;stop-opacity:0"/></linearGradient><path d="M734,902.2c0,0,15.7,12.3,52.4,10.5c36.8-1.8,46-6.7,53.1-13.6c7.1-6.9,3.1,5.3-9.1,9.4 c-12.1,4-27.1,7.6-45.2,7.1c-18.1-0.5-51.2-6.9-52.3-10.7C731.9,901.2,734,902.2,734,902.2z" class="st18"/></g><g id="Layer_14_1_"><linearGradient id="SVGID_18_" x1="709.855" x2="749.072" y1="187.765" y2="178.502" gradientTransform="matrix(1 0 0 -1 0 1024)" gradientUnits="userSpaceOnUse"><stop offset="0" style="stop-color:#93a6bb"/><stop offset=".369" style="stop-color:#a2b7c8"/><stop offset=".69" style="stop-color:#abc0cf"/><stop offset=".705" style="stop-color:#aec2cf;stop-opacity:.9771"/><stop offset=".815" style="stop-color:#c0cbce;stop-opacity:.8153"/><stop offset=".894" style="stop-color:#c7cfce;stop-opacity:.7"/><stop offset=".902" style="stop-color:#c8cfce;stop-opacity:.6607"/><stop offset=".999" style="stop-color:#cdd2ce;stop-opacity:.2"/></linearGradient><path d="M720.3,827.9c0,0-7.7,5.6,3.2,8.6c10.9,3,26.8,3.8,26.8,3.8s3.1,3.5-1.9,2.9c-4.9-0.6-25.1-2.4-25.1-2.4 s-7.1,0-1,3.9c6.1,3.9,9.8,6.5,9.8,6.5s3.4,4.2-1.7,2.1c-5.1-2.1-9.8-3.3-18.1-8.9c-4.4-5.5-7.6-10.1,1.2-18.6 C719.9,825,720.3,827.9,720.3,827.9z" class="st19"/></g><g id="Layer_16_1_"><linearGradient id="SVGID_19_" x1="734.77" x2="811.766" y1="167.357" y2="167.357" gradientTransform="matrix(1 0 0 -1 0 1024)" gradientUnits="userSpaceOnUse"><stop offset="0" style="stop-color:#484a4c"/><stop offset="1" style="stop-color:#484a4c;stop-opacity:0"/></linearGradient><path d="M734.8,854.6c0,0,18.2,7.9,77,1.8C775.1,858.7,734.8,854.6,734.8,854.6z" class="st20"/><linearGradient id="SVGID_20_" x1="838.137" x2="733.715" y1="178.713" y2="169.854" gradientTransform="matrix(1 0 0 -1 0 1024)" gradientUnits="userSpaceOnUse"><stop offset="0" style="stop-color:#484a4c"/><stop offset="1" style="stop-color:#484a4c;stop-opacity:0"/></linearGradient><path d="M760.9,849.8c0,0,64,1.6,83.5-9.7C820.5,861.5,760.9,849.8,760.9,849.8z" class="st21"/><linearGradient id="SVGID_21_" x1="746.909" x2="837.084" y1="152.615" y2="152.615" gradientTransform="matrix(1 0 0 -1 0 1024)" gradientUnits="userSpaceOnUse"><stop offset="0" style="stop-color:#484a4c;stop-opacity:0"/><stop offset="1" style="stop-color:#484a4c"/></linearGradient><path d="M837.1,866.2c0,0-49,10.2-90.2,4.7C747,871,785.1,886.4,837.1,866.2z" class="st22"/></g><g id="Layer_19_1_"><linearGradient id="SVGID_22_" x1="861.292" x2="807.147" y1="153.199" y2="138.286" gradientTransform="matrix(1 0 0 -1 0 1024)" gradientUnits="userSpaceOnUse"><stop offset="0" style="stop-color:#90a3bb"/><stop offset=".078" style="stop-color:#99aec3"/><stop offset=".215" style="stop-color:#b0cad7"/><stop offset=".374" style="stop-color:#d2f3f5"/><stop offset="1" style="stop-color:#d2f3f5;stop-opacity:0"/></linearGradient><path d="M845.8,864.5c0,0,2,5.2-6.3,7.2c-8.3,2-13,6.3-15.8,6.3c-2.9,0-19.9,4.3-19.9,4.3s-6.3,3.7,4.3,4.3 c10.7,0.6,37.9-4.3,37.9-4.3s5.3,1.2,1.5,4.4c-3.7,3.1,12-1.7,15.3-8.7c5.1-5.5,2.6-14-1.5-19.7 C857.3,856.9,845.8,864.5,845.8,864.5z" class="st23"/></g><g id="Layer_15_1_"><linearGradient id="SVGID_23_" x1="708.319" x2="866.131" y1="167.924" y2="167.924" gradientTransform="matrix(1 0 0 -1 0 1024)" gradientUnits="userSpaceOnUse"><stop offset="0" style="stop-color:#9cb1c7"/><stop offset=".022" style="stop-color:#a0b6cb"/><stop offset=".049" style="stop-color:#adc5d7"/><stop offset=".078" style="stop-color:#c2ddea"/><stop offset=".087" style="stop-color:#c9e5f1"/><stop offset=".235" style="stop-color:#c9e5f1"/><stop offset=".286" style="stop-color:#d9ebf3"/><stop offset=".357" style="stop-color:#e9f1f5"/><stop offset=".439" style="stop-color:#f2f5f6"/><stop offset=".554" style="stop-color:#f5f6f6"/><stop offset=".604" style="stop-color:#e9f1f5"/><stop offset=".72" style="stop-color:#d2e8f2"/><stop offset=".792" style="stop-color:#c9e5f1"/><stop offset="1" style="stop-color:#9cb1c7"/></linearGradient><path d="M715.1,846.9c0,0,11.1,6.1,12.6,7.8c1.5,1.7,2.8,4,2.3,5.5s31.1,6.4,45.6,5.9c14.6-0.5,58-8.9,58.7-10.1 s-4.4-2.4-1-4.1c3.4-1.7,25.2-9.2,28.2-16.4c3.8,3.6,8.3,13,0,22.8c-1,0.6-15.9,10.3-31.5,12.4l19-9.2c0,0-59.2,6.8-90.7,5.6 s-39.4-7.8-38.4,0.3c8.1,4.3,13.2,9.1,13.2,9.1s-13-2.1-17.2-6.8C710.5,864.6,702.4,855.6,715.1,846.9z" class="st24"/></g><g id="Layer_13_1_"><linearGradient id="SVGID_24_" x1="713.285" x2="863.512" y1="190.535" y2="190.535" gradientTransform="matrix(1 0 0 -1 0 1024)" gradientUnits="userSpaceOnUse"><stop offset="0" style="stop-color:#fff;stop-opacity:0"/><stop offset=".005" style="stop-color:#e3e4e4;stop-opacity:3.244674e-02"/><stop offset=".013" style="stop-color:#bfc0c0;stop-opacity:8.289307e-02"/><stop offset=".022" style="stop-color:#9fa0a1;stop-opacity:.1396"/><stop offset=".032" style="stop-color:#838586;stop-opacity:.2023"/><stop offset=".043" style="stop-color:#6d6f71;stop-opacity:.2732"/><stop offset=".056" style="stop-color:#5c5e60;stop-opacity:.3559"/><stop offset=".072" style="stop-color:#515354;stop-opacity:.4582"/><stop offset=".094" style="stop-color:#4a4c4e;stop-opacity:.6017"/><stop offset=".156" style="stop-color:#484a4c"/><stop offset=".205" style="stop-color:#484a4c"/><stop offset=".501" style="stop-color:#484a4c"/><stop offset=".805" style="stop-color:#484a4c"/><stop offset=".883" style="stop-color:#4a4c4e;stop-opacity:.6017"/><stop offset=".911" style="stop-color:#515354;stop-opacity:.4582"/><stop offset=".931" style="stop-color:#5c5e60;stop-opacity:.3559"/><stop offset=".947" style="stop-color:#6d6f71;stop-opacity:.2732"/><stop offset=".961" style="stop-color:#838586;stop-opacity:.2023"/><stop offset=".973" style="stop-color:#9fa0a1;stop-opacity:.1396"/><stop offset=".984" style="stop-color:#bfc0c0;stop-opacity:8.289307e-02"/><stop offset=".994" style="stop-color:#e3e4e4;stop-opacity:3.244674e-02"/><stop offset="1" style="stop-color:#fff;stop-opacity:0"/></linearGradient><path d="M863.5,824.3c0,0-10.8,18.7-84.4,18.4S713.5,827,713.5,827L863.5,824.3z" class="st25"/></g><g id="Layer_4_3_"><linearGradient id="SVGID_25_" x1="787.002" x2="787.002" y1="421.251" y2="194.679" gradientTransform="matrix(1 0 0 -1 0 1024)" gradientUnits="userSpaceOnUse"><stop offset="0" style="stop-color:#dfe0e4"/><stop offset=".111" style="stop-color:#dfe0e4"/><stop offset=".227" style="stop-color:#e7e8ec"/><stop offset=".442" style="stop-color:#f0f0f4"/><stop offset=".815" style="stop-color:#f2f2f6"/></linearGradient><path d="M930.6,579.6c0,0,8.3,21.5-143.6,20.1l0,0l0,0l0,0l0,0c-151.9,1.4-143.6-20.1-143.6-20.1s-10.4,4.9,0,12.5 c10.4,7.6,49.2,168.6,37.5,201.9c10.4,5.5,20.8,22.2,20.8,22.2s2.1,1.4-2.1,2.8s25,15.3,87.4,15.3l0,0l0,0l0,0l0,0 c62.4,0,91.6-13.9,87.4-15.3s-2.1-2.8-2.1-2.8s10.4-16.6,20.8-22.2c-11.8-33.3,27.1-194.2,37.5-201.9 C941,584.5,930.6,579.6,930.6,579.6z" class="st26"/></g><g id="Layer_4_copy_1_"><radialGradient id="SVGID_26_" cx="841.73" cy="-59.206" r="292.632" gradientTransform="matrix(-1.650668e-03 -1 -0.5695 9.400374e-04 752.2186 1672.7789)" gradientUnits="userSpaceOnUse"><stop offset="0" style="stop-color:#f3f3f7;stop-opacity:3.000000e-02"/><stop offset="1" style="stop-color:#d7d8dc"/></radialGradient><path d="M930.6,579.6c0,0,8.3,21.5-143.6,20.1l0,0l0,0l0,0l0,0c-151.9,1.4-143.6-20.1-143.6-20.1s-10.4,4.9,0,12.5 c10.4,7.6,49.2,168.6,37.5,201.9c10.4,5.5,20.8,22.2,20.8,22.2s2.1,1.4-2.1,2.8s25,15.3,87.4,15.3l0,0l0,0l0,0l0,0 c62.4,0,91.6-13.9,87.4-15.3s-2.1-2.8-2.1-2.8s10.4-16.6,20.8-22.2c-11.8-33.3,27.1-194.2,37.5-201.9 C941,584.5,930.6,579.6,930.6,579.6z" class="st27"/></g><g id="Layer_7_1_"><linearGradient id="SVGID_27_" x1="931.645" x2="877.435" y1="326.019" y2="331.012" gradientTransform="matrix(1 0 0 -1 0 1024)" gradientUnits="userSpaceOnUse"><stop offset=".162" style="stop-color:#d0d4db"/><stop offset=".978" style="stop-color:#d0d4db;stop-opacity:2.611685e-02"/><stop offset="1" style="stop-color:#d0d4db;stop-opacity:0"/></linearGradient><path d="M906.9,592.5c0,0-49.9,185.3-31.1,218.7c5.1-5,10.4-14.4,17.4-17.3c-8-42.7,20.1-170.3,37.5-201.9 c0.6-2.2,4.6-2.4,4.6-6.7c0.7-2.8-4.6-5.8-4.6-5.8s1.5,4.4-8.3,8.2C914.2,591.5,906.9,592.5,906.9,592.5z" class="st28"/></g><g id="Layer_9_1_"><linearGradient id="SVGID_28_" x1="895.486" x2="869.089" y1="408.617" y2="214.52" gradientTransform="matrix(1 0 0 -1 0 1024)" gradientUnits="userSpaceOnUse"><stop offset="0" style="stop-color:#dfe1e6;stop-opacity:.7"/><stop offset="1" style="stop-color:#dfe1e6;stop-opacity:0"/></linearGradient><path d="M901.2,594.3c0,0-55,169.3-26.7,221.8l3.6-4.6c-18.7-46.1,30.9-219,30.9-219L901.2,594.3z" class="st29"/></g><g id="Layer_4_copy_2_1_"><radialGradient id="SVGID_29_" cx="676.758" cy="419.034" r="80.433" gradientTransform="matrix(4.714199e-03 1 8.741 -4.120727e-02 -2892.1289 -68.0091)" gradientUnits="userSpaceOnUse"><stop offset="0" style="stop-color:#fdfeff"/><stop offset=".059" style="stop-color:#fdfeff"/><stop offset=".069" style="stop-color:#fdfeff"/><stop offset=".136" style="stop-color:#fbfcfd;stop-opacity:.8912"/><stop offset=".162" style="stop-color:#f4f5f7;stop-opacity:.8491"/><stop offset=".18" style="stop-color:#e8e9eb;stop-opacity:.8187"/><stop offset=".192" style="stop-color:#dcdde0;stop-opacity:.8"/><stop offset=".295" style="stop-color:#dddee1;stop-opacity:0"/><stop offset="1" style="stop-color:#dfe0e4;stop-opacity:0"/></radialGradient><path d="M930.6,579.6c0,0,8.3,21.5-143.6,20.1l0,0l0,0c-151.9,1.4-143.6-20.1-143.6-20.1s-10.4,4.9,0,12.5 c1.7,1.2,10,27.3,12.9,35.4c34.1,14.4,104.6,7.8,243.1-20.1c12.4-2.5,17.7-12.3,31.2-15.3C941,584.5,930.6,579.6,930.6,579.6z" class="st30"/></g><g id="Layer_11_1_"><linearGradient id="SVGID_30_" x1="673.869" x2="680.304" y1="336.347" y2="337.152" gradientTransform="matrix(1 0 0 -1 0 1024)" gradientUnits="userSpaceOnUse"><stop offset="0" style="stop-color:#dde9f3;stop-opacity:.6"/><stop offset=".019" style="stop-color:#dde9f3;stop-opacity:.5857"/><stop offset=".135" style="stop-color:#dde9f3;stop-opacity:.5"/></linearGradient><path d="M643.4,579.6c0,0-10.4,4.9,0,12.5c10.4,7.6,49.2,168.6,37.5,201.9c1.9,1,3.8,2.4,5.6,4c0,0,0-0.1,0.1-0.1 c14.3-38.7-29.3-200.8-34.6-204.1c-3.7-2.3-5-6.6-5.5-8.9C642.6,581.8,643.4,579.6,643.4,579.6z" class="st31"/></g></g></svg>