<svg xmlns="http://www.w3.org/2000/svg" xmlns:xlink="http://www.w3.org/1999/xlink" x="0" y="0" version="1.1" viewBox="0 0 1024 1024" xml:space="preserve" style="enable-background:new 0 0 1024 1024"><metadata><?xpacket begin="﻿" id="W5M0MpCehiHzreSzNTczkc9d"?><x:xmpmeta xmlns:x="adobe:ns:meta/" x:xmptk="Adobe XMP Core 5.6-c143 79.161356, 2017/09/07-01:11:22"><rdf:RDF xmlns:rdf="http://www.w3.org/1999/02/22-rdf-syntax-ns#"><rdf:Description/></rdf:RDF></x:xmpmeta><?xpacket end="w"?></metadata><style type="text/css">.st0{fill:url(#SVGID_1_)}.st1{fill:url(#SVGID_2_)}.st2{fill:#cdcece}.st3{fill:#b7b7b7}</style><g id="Layer_2"><linearGradient id="SVGID_1_" x1="515.59" x2="515.59" y1="103.111" y2="890.607" gradientTransform="matrix(0.9877 -0.1564 0.1564 0.9877 -71.4926 86.7822)" gradientUnits="userSpaceOnUse"><stop offset=".01" style="stop-color:#ffd058"/><stop offset=".059" style="stop-color:#ffce53"/><stop offset=".114" style="stop-color:#ffc645"/><stop offset=".173" style="stop-color:#ffba2e"/><stop offset=".186" style="stop-color:#ffb728"/><stop offset=".203" style="stop-color:#ffb728"/></linearGradient><polygon points="902.7 841.8 253.8 944.5 128.5 153.4 777.4 50.7" class="st0"/><linearGradient id="SVGID_2_" x1="478.579" x2="573.578" y1="247.888" y2="861.888" gradientUnits="userSpaceOnUse"><stop offset=".01" style="stop-color:#f8f8f8"/><stop offset=".669" style="stop-color:#f6f6f6"/><stop offset=".918" style="stop-color:#efefef"/><stop offset="1" style="stop-color:#ebebeb"/></linearGradient><polygon points="895.5 816.4 255.5 917.8 155.4 285.7 795.4 184.4" class="st1"/><rect width="648" height="23.4" x="253.4" y="866.9" class="st2" transform="matrix(0.9877 -0.1564 0.1564 0.9877 -130.3421 101.1383)"/></g><g id="Layer_3"><rect width="648" height="4.6" x="162.2" y="300.6" class="st3" transform="matrix(0.9877 -0.1564 0.1564 0.9877 -41.3938 79.7837)"/><rect width="648" height="4.6" x="171.2" y="357.5" class="st3" transform="matrix(0.9877 -0.1564 0.1564 0.9877 -50.189 81.8952)"/><rect width="648" height="4.6" x="180.2" y="414.4" class="st3" transform="matrix(0.9877 -0.1564 0.1564 0.9877 -58.9842 84.0067)"/><rect width="648" height="4.6" x="189.2" y="471.4" class="st3" transform="matrix(0.9877 -0.1564 0.1564 0.9877 -67.7794 86.1183)"/><rect width="648" height="4.6" x="198.2" y="528.3" class="st3" transform="matrix(0.9877 -0.1564 0.1564 0.9877 -76.5746 88.2298)"/><rect width="648" height="4.6" x="207.3" y="585.2" class="st3" transform="matrix(0.9877 -0.1564 0.1564 0.9877 -85.3698 90.3414)"/><rect width="648" height="4.6" x="216.3" y="642.2" class="st3" transform="matrix(0.9877 -0.1564 0.1564 0.9877 -94.165 92.4529)"/><rect width="648" height="4.6" x="225.3" y="699.1" class="st3" transform="matrix(0.9877 -0.1564 0.1564 0.9877 -102.9602 94.5644)"/><rect width="648" height="4.6" x="234.3" y="756" class="st3" transform="matrix(0.9877 -0.1564 0.1564 0.9877 -111.7554 96.676)"/><rect width="648" height="4.6" x="243.3" y="813" class="st3" transform="matrix(0.9877 -0.1564 0.1564 0.9877 -120.5506 98.7875)"/></g></svg>