<svg xmlns="http://www.w3.org/2000/svg" xmlns:xlink="http://www.w3.org/1999/xlink" id="scanner" x="0" y="0" version="1.1" viewBox="0 0 1024 1024" xml:space="preserve" style="enable-background:new 0 0 1024 1024"><style type="text/css">.st0{fill:#141311}.st1{fill:url(#SVGID_1_)}.st2{fill:url(#SVGID_2_)}.st3{fill:#adadad}.st4{fill:#ddd}.st5{fill:url(#SVGID_3_)}</style><g><path d="M512,808.9H142.6c-29.6,0-50-20.8-56.7-30l-23.3-48.2v-7c0,0,449.4,0,449.4,0h450.4v7l-24.3,48.2 c-6.7,9.2-27.1,30-56.7,30C881.4,808.9,512,808.9,512,808.9z" class="st0"/><linearGradient id="SVGID_1_" x1="59.65" x2="965.354" y1="579.714" y2="579.714" gradientUnits="userSpaceOnUse"><stop offset="0" style="stop-color:#eaeaea"/><stop offset=".5" style="stop-color:#f4f4f4"/><stop offset="1" style="stop-color:#eaeaea"/></linearGradient><path d="M814.7,405.1H209.3L62.6,704.3c-10.4,21.7,7.9,49,31.9,50c0.5,0,1,0,1.5,0h833c0.5,0,1,0,1.5,0 c24.1-1,42.3-28.3,31.9-50L814.7,405.1z" class="st1"/><linearGradient id="SVGID_2_" x1="512" x2="512" y1="685" y2="406.908" gradientUnits="userSpaceOnUse"><stop offset=".159" style="stop-color:#3f3f3f"/><stop offset=".526" style="stop-color:#3b3b3b"/><stop offset=".894" style="stop-color:#2f2f2f"/><stop offset="1" style="stop-color:#2a2a2a"/></linearGradient><polygon points="785.5 406.9 238.5 406.9 120.5 685 903.5 685" class="st2"/><path d="M512,418.8l397.3,1.5c48.1,1.4,118.9-5.5,53-49.7c0,0-203.8-150-208.2-151.3c-4.3-1.3-15.2-3.2-61.3-3.2 c-46.2,0-180.8,0-180.8,0s-134.7,0-180.8,0s-57,1.8-61.3,3.2c-4.3,1.3-208.2,151.3-208.2,151.3c-65.9,44.2,4.9,51.1,53,49.7 L512,418.8z" class="st3"/><path d="M512,412.8l397.3,1.5c48.1,1.4,118.9,0.5,53-43.8c0,0-203.8-150-208.2-151.3c-4.3-1.3-15.2-3.2-61.3-3.2 c-46.2,0-180.8,0-180.8,0s-134.7,0-180.8,0s-57,1.8-61.3,3.2c-4.3,1.3-208.2,151.3-208.2,151.3c-65.9,44.2,4.9,45.1,53,43.8 L512,412.8z" class="st4"/><linearGradient id="SVGID_3_" x1="39.768" x2="985.815" y1="311.454" y2="311.454" gradientUnits="userSpaceOnUse"><stop offset="0" style="stop-color:#eaeaea"/><stop offset=".5" style="stop-color:#f4f4f4"/><stop offset="1" style="stop-color:#eaeaea"/></linearGradient><path d="M519.7,405l397.3,1.5c48.1,1.4,100.1,0.4,45.3-36c0,0-203.8-150-208.2-151.3c-4.3-1.3-15.2-3.2-61.3-3.2 c-46.2,0-180.8,0-180.8,0s-134.7,0-180.8,0s-57,1.8-61.3,3.2c-4.3,1.3-208.2,151.3-208.2,151.3c-58.2,37.2,12.6,37.4,60.7,36 L519.7,405z" class="st5"/></g></svg>