<svg xmlns="http://www.w3.org/2000/svg" xmlns:xlink="http://www.w3.org/1999/xlink" x="0" y="0" version="1.1" viewBox="0 0 1024 1024" xml:space="preserve" style="enable-background:new 0 0 1024 1024"><style type="text/css">.st0{fill:url(#SVGID_1_)}.st1{fill:#14363d}.st2{fill:url(#SVGID_2_)}.st3{fill:#313d25}.st4{fill:url(#SVGID_3_)}.st5{fill:#3f3d25}</style><g id="Blue_Square"><linearGradient id="SVGID_1_" x1="577.235" x2="498.673" y1="886.836" y2="441.287" gradientUnits="userSpaceOnUse"><stop offset=".003" style="stop-color:#6ce6f9"/><stop offset=".367" style="stop-color:#54cff3"/><stop offset=".729" style="stop-color:#43bfef"/><stop offset="1" style="stop-color:#3db9ee"/></linearGradient><path d="M312.8,888.6c0,0,311.3-11.3,505.5-44.3c4.5-0.8,7.7-4.8,7.4-9.3c-1.4-23.8-8.6-103.2-32-218.1l-46-192.3 l-478,57C269.7,481.7,325.5,825.9,312.8,888.6z" class="st0"/></g><g id="Layer_6"><path d="M487.1,822.9c-5.4,0-10.5-2.2-14.2-6.2l-92.7-100.2c-6-6.5-5.6-16.6,0.9-22.6c6.5-6,16.6-5.6,22.6,0.9l82,88.6 c17.6-25.2,49.1-68.8,85.1-110.9c61.4-71.9,109.1-109.3,146-114.3c8.8-1.2,16.8,5,18,13.7c1.2,8.8-5,16.8-13.7,18 c-15.9,2.2-53.5,18.4-125.9,103.3c-42.3,49.5-78.4,101.2-91.9,121.1c-3.3,4.9-8.7,8-14.6,8.5C488.1,822.9,487.6,822.9,487.1,822.9z" class="st1"/></g><g id="Green_Square"><linearGradient id="SVGID_2_" x1="552.049" x2="858.77" y1="700.634" y2="169.379" gradientUnits="userSpaceOnUse"><stop offset="0" style="stop-color:#d1f8a6"/><stop offset=".021" style="stop-color:#cef8a2"/><stop offset=".152" style="stop-color:#bef58b"/><stop offset=".277" style="stop-color:#b4f47e"/><stop offset=".387" style="stop-color:#b1f379"/><stop offset=".464" style="stop-color:#b6f480"/><stop offset=".802" style="stop-color:#caf79c"/><stop offset="1" style="stop-color:#d1f8a6"/></linearGradient><path d="M959.6,227.6l-22.3,428.7c0,0-253.6,5.4-511.6-28.6c0,0,12.8-54.9,10.1-81.4l49.9-353.5L959.6,227.6z" class="st2"/></g><g id="Layer_8"><path d="M646.7,562.5c-5,0-9.7-1.9-13.4-5.4L535,462.5c-6.4-6.1-6.6-16.3-0.4-22.6c6.1-6.4,16.3-6.6,22.6-0.4l87,83.7 c16.1-26.2,45.1-71.5,78.5-115.7c57.1-75.3,102.7-115.4,139.2-122.5c8.7-1.7,17.1,4,18.8,12.7c1.7,8.7-4,17.1-12.7,18.8 c-15.8,3.1-52.3,21.5-119.8,110.4c-39.4,51.9-72.4,105.6-84.8,126.2c-3.1,5.1-8.2,8.5-14.1,9.3 C648.5,562.5,647.6,562.5,646.7,562.5z" class="st3"/></g><g id="Yellow_Square"><linearGradient id="SVGID_3_" x1="170.394" x2="505.483" y1="657.63" y2="77.237" gradientUnits="userSpaceOnUse"><stop offset="0" style="stop-color:#fdfaaa"/><stop offset=".072" style="stop-color:#fcf698"/><stop offset=".185" style="stop-color:#faf081"/><stop offset=".292" style="stop-color:#f9ed74"/><stop offset=".387" style="stop-color:#f9ec6f"/><stop offset=".564" style="stop-color:#faf184"/><stop offset=".839" style="stop-color:#fcf8a0"/><stop offset="1" style="stop-color:#fdfaaa"/></linearGradient><path d="M36,230c0,0,358-114,476-149c0,0,102.5,300.7,138,406.3c0,0-27,38.7-491.7,163.3c0,0,8.3-13.4-2.5-47.5 C146.4,572.8,61,307.7,36,230z" class="st4"/></g><g id="Layer_7"><path d="M314.6,485.3c-2.7,0-5.5-0.6-8.1-1.8l-123.8-57.4c-8-3.7-11.5-13.2-7.8-21.2c3.7-8,13.2-11.5,21.2-7.8 l109.5,50.7c6.7-30,19.3-82.3,36.5-135c29.4-89.9,59.4-142.6,91.6-161.2c7.6-4.4,17.4-1.8,21.9,5.8c4.4,7.6,1.8,17.4-5.8,21.9 c-13.9,8-42.4,37.4-77.2,143.5c-20.3,61.9-34,123.4-38.9,147c-1.2,5.8-5,10.7-10.3,13.4C320.6,484.6,317.6,485.3,314.6,485.3z" class="st5"/></g></svg>