<svg xmlns="http://www.w3.org/2000/svg" xmlns:xlink="http://www.w3.org/1999/xlink" x="0" y="0" version="1.1" viewBox="0 0 1024 1024" xml:space="preserve" style="enable-background:new 0 0 1024 1024"><style type="text/css">.st0{display:none}.st1{display:inline;fill:#1e1e1e}.st2{fill:url(#SVGID_1_)}.st3{fill:url(#SVGID_2_)}.st4{fill:url(#SVGID_3_)}.st5{fill:url(#SVGID_4_)}.st6{fill:url(#SVGID_5_)}.st7{fill:url(#SVGID_6_)}.st8{fill:#b5b5b3}</style><g id="Layer_2_1_" class="st0"><path d="M989.9,726.8H29.1c-3.9,0-7.1-3.2-7.1-7.1V155.6c0-3.9,3.2-7.1,7.1-7.1h960.7c3.9,0,7.1,3.2,7.1,7.1v564.1 C997,723.6,993.8,726.8,989.9,726.8z" class="st1"/></g><g id="Layer_6_copy"><path d="M705.9,874.6H315.2c-1.9,0-3.5-1.6-3.5-3.5l0,0c0-1.9,1.6-3.5,3.5-3.5h390.7c1.9,0,3.5,1.6,3.5,3.5l0,0 C709.3,873,707.8,874.6,705.9,874.6z"/><linearGradient id="SVGID_1_" x1="510.872" x2="509.101" y1="757.652" y2="895.327" gradientUnits="userSpaceOnUse"><stop offset="0" style="stop-color:#fdfdfc"/><stop offset=".208" style="stop-color:#f1f1ef"/><stop offset=".492" style="stop-color:#e5e4e2"/><stop offset=".613" style="stop-color:#f2f1f0"/><stop offset=".768" style="stop-color:#fafaf9"/><stop offset=".978" style="stop-color:#fdfdfc"/></linearGradient><path d="M321.3,809.7h381.4l13.6,44.3c0,0,5.7,17-7.2,17.4c-12.9,0.4-393.5,0-393.5,0s-21.2,3-11.7-21.6 C313.4,825.2,321.3,809.7,321.3,809.7z" class="st2"/></g><g id="Layer_6"><linearGradient id="SVGID_2_" x1="295.722" x2="322.878" y1="740.442" y2="814.878" gradientUnits="userSpaceOnUse"><stop offset="0" style="stop-color:#a09f96"/><stop offset=".048" style="stop-color:#a2a198"/><stop offset=".492" style="stop-color:#aeaea3"/><stop offset=".526" style="stop-color:#acaba1"/><stop offset=".718" style="stop-color:#a3a299"/><stop offset=".978" style="stop-color:#a09f96"/></linearGradient><polyline points="283.7 735.2 316.5 818.1 327.7 818.1 331.1 809.8 302.2 735.2 283.7 735.2" class="st3"/><linearGradient id="SVGID_3_" x1="-109.37" x2="-82.214" y1="740.442" y2="814.878" gradientTransform="matrix(-1 0 0 1 614.8572 0)" gradientUnits="userSpaceOnUse"><stop offset="0" style="stop-color:#a09f96"/><stop offset=".048" style="stop-color:#a2a198"/><stop offset=".492" style="stop-color:#aeaea3"/><stop offset=".526" style="stop-color:#acaba1"/><stop offset=".718" style="stop-color:#a3a299"/><stop offset=".978" style="stop-color:#a09f96"/></linearGradient><polyline points="736.2 735.2 703.5 818.1 692.3 818.1 688.8 809.8 717.7 735.2 736.2 735.2" class="st4"/></g><g id="Layer_2_copy"><linearGradient id="SVGID_4_" x1="27.999" x2="698.358" y1="328.748" y2="472.62" gradientUnits="userSpaceOnUse"><stop offset="0" style="stop-color:#404040"/><stop offset=".999" style="stop-color:#1e1e1e"/></linearGradient><path d="M990.5,716H29.8c-3.9,0-7.1-3.2-7.1-7.1V155.6c0-3.9,3.2-7.1,7.1-7.1h960.7c3.9,0,7.1,3.2,7.1,7.1v553.3 C997.6,712.8,994.4,716,990.5,716z" class="st5"/><g id="Layer_4"><linearGradient id="SVGID_5_" x1="510.15" x2="510.15" y1="184.347" y2="705.752" gradientUnits="userSpaceOnUse"><stop offset="0" style="stop-color:#0099d9"/><stop offset=".151" style="stop-color:#0b97d7"/><stop offset=".688" style="stop-color:#2e90d0"/><stop offset=".978" style="stop-color:#3b8dcd"/></linearGradient><rect width="940.5" height="551.9" x="39.9" y="164.1" class="st6"/></g></g><g id="Layer_5"><linearGradient id="SVGID_6_" x1="22.633" x2="997.633" y1="716.024" y2="716.024" gradientUnits="userSpaceOnUse"><stop offset="0" style="stop-color:#d0cfcb"/><stop offset=".999" style="stop-color:#b5b5b3"/></linearGradient><path d="M990.5,735.2H29.8c-3.9,0-7.1-3.2-7.1-7.1V704c0-3.9,3.2-7.1,7.1-7.1h960.7c3.9,0,7.1,3.2,7.1,7.1v24.1 C997.6,732,994.4,735.2,990.5,735.2z" class="st7"/><polygon points="491.1 706.5 491.1 716.3 500.3 725.6 509.4 716.3 509.4 706.5" class="st8"/><circle cx="520.9" cy="716" r="9.5" class="st8"/></g></svg>