<svg xmlns="http://www.w3.org/2000/svg" xmlns:svg="http://www.w3.org/2000/svg" id="splat" x="0" y="0" version="1.1" viewBox="0 0 1024 1024" xml:space="preserve" style="enable-background:new 0 0 1024 1024"><metadata id="metadata84"/><defs id="defs82"><filter style="color-interpolation-filters:sRGB" id="filter4051"><feFlood id="feFlood4041" flood-color="#000" flood-opacity=".294" result="flood"/><feComposite id="feComposite4043" in="flood" in2="SourceGraphic" operator="in" result="composite1"/><feGaussianBlur id="feGaussianBlur4045" in="composite1" result="blur" stdDeviation="10"/><feOffset id="feOffset4047" dx="3" dy="3" result="offset"/><feComposite id="feComposite4049" in="SourceGraphic" in2="offset" operator="over" result="composite2"/></filter></defs><style id="style48" type="text/css">.st0{fill:url(#SVGID_1_)}.st1{fill:none;stroke:#000;stroke-width:50;stroke-miterlimit:10}.st2{fill:url(#SVGID_2_)}.st3{fill:url(#SVGID_3_)}</style><linearGradient id="SVGID_1_" x1="65.815" x2="958.817" y1="531.054" y2="493.877" gradientTransform="matrix(0.3672 0.9301 -0.9301 0.3672 800.523 -152.7127)" gradientUnits="userSpaceOnUse"><stop style="stop-color:#f7f6f7" id="stop50" offset="0"/><stop style="stop-color:#f1f0f2" id="stop52" offset=".148"/><stop style="stop-color:#d7d6dc" id="stop54" offset=".898"/></linearGradient><circle id="circle57" cx="512" cy="512" r="446.9" class="st0"/><path id="path59" d="M512,512" class="st1"/><linearGradient id="SVGID_2_" x1="107.775" x2="916.225" y1="512" y2="512" gradientTransform="matrix(-0.1929 -0.9812 0.9812 -0.1929 108.3984 1113.1603)" gradientUnits="userSpaceOnUse"><stop style="stop-color:#aa0e00" id="stop61" offset="0"/><stop style="stop-color:#b71303" id="stop63" offset=".144"/><stop style="stop-color:#ff2f15" id="stop65" offset="1"/></linearGradient><circle id="circle68" cx="512" cy="512" r="404.2" class="st2"/><linearGradient id="SVGID_3_" x1="289.724" x2="735.468" y1="269.411" y2="755.89" gradientUnits="userSpaceOnUse"><stop style="stop-color:#f7f6f7" id="stop70" offset="0"/><stop style="stop-color:#f1f0f2" id="stop72" offset=".165"/><stop style="stop-color:#d7d6dc" id="stop74" offset="1"/></linearGradient><path id="path77" d="M559,512l130.1-139.5c13-13.9,12.2-35.6-1.7-48.6s-35.6-12.2-48.6,1.7L512,461.6l-126.8-136 c-13-13.9-34.7-14.6-48.6-1.7s-14.6,34.7-1.7,48.6L465,512L334.9,651.5c-13,13.9-12.2,35.6,1.7,48.6c6.6,6.2,15,9.2,23.4,9.2 c9.2,0,18.4-3.7,25.2-10.9l126.8-136l126.8,136c6.8,7.3,15.9,10.9,25.2,10.9c8.4,0,16.8-3.1,23.4-9.2c13.9-12.9,14.6-34.7,1.7-48.6 L559,512z" class="st3" style="filter:url(#filter4051)"/></svg>