<svg xmlns="http://www.w3.org/2000/svg" xmlns:svg="http://www.w3.org/2000/svg" xmlns:xlink="http://www.w3.org/1999/xlink" id="Layer_1" x="0" y="0" version="1.1" viewBox="0 0 1024 1024" xml:space="preserve" style="enable-background:new 0 0 1024 1024"><metadata id="metadata33"/><defs id="defs31"><radialGradient id="radialGradient83" cx="501.89" cy="163.635" r="485.619" gradientUnits="userSpaceOnUse" xlink:href="#SVGID_3_"/><filter style="color-interpolation-filters:sRGB" id="filter107"><feGaussianBlur id="feGaussianBlur105" result="fbSourceGraphic" stdDeviation="7.19 6.65827"/><feColorMatrix id="feColorMatrix109" in="fbSourceGraphic" result="fbSourceGraphicAlpha" values="0 0 0 -1 0 0 0 0 -1 0 0 0 0 -1 0 0 0 0 1 0"/><feGaussianBlur id="feGaussianBlur111" in="fbSourceGraphic" result="blur" stdDeviation="7.19 6.66"/></filter></defs><style id="style2" type="text/css">.st0{fill:url(#SVGID_1_)}.st1{fill:url(#SVGID_2_)}.st2{fill-rule:evenodd;clip-rule:evenodd;fill:url(#SVGID_3_)}</style><g id="Circle"><radialGradient id="SVGID_1_" cx="531.768" cy="1127.395" r="954.203" gradientTransform="matrix(1 0 0 -1 0 1024)" gradientUnits="userSpaceOnUse"><stop style="stop-color:#fbfafa" id="stop4" offset="0"/><stop style="stop-color:#d5d5d5" id="stop6" offset="1"/></radialGradient><circle id="circle9" cx="508.8" cy="511.7" r="447" class="st0"/><radialGradient id="SVGID_2_" cx="501.89" cy="198.427" r="654.654" gradientUnits="userSpaceOnUse"><stop style="stop-color:#444e58" id="stop11" offset="0"/><stop style="stop-color:#1b212a" id="stop13" offset="1"/></radialGradient><circle id="circle16" cx="509.1" cy="514.7" r="409" class="st1"/><radialGradient id="SVGID_3_" cx="501.89" cy="163.635" r="485.619" gradientUnits="userSpaceOnUse"><stop style="stop-color:#fbfafa" id="stop20" offset="0"/><stop style="stop-color:#d5d5d5" id="stop22" offset="1"/></radialGradient></g><g id="layer1" style="display:inline;opacity:.429"><path id="path18" d="m 525.7,318.6 c 1.7,7.8 10.4,16.4 2.9,24.4 -2.8,4.3 -4.8,8.9 -3.9,14.6 13.2,9.1 16.6,-16.9 32.2,-7.8 3.6,-3.1 7.2,-6.1 12.7,-4.9 -1.2,15 15.6,7.1 23.4,10.7 7.6,-1.6 20.8,4.3 21.5,-7.8 1.6,0.5 3,1.3 4.9,1 0.9,4.1 -3,8.4 2.9,9.8 6.7,-1.7 15.4,4.1 16.6,-4.9 2.1,-0.5 4.2,1.2 4.9,1.9 l -2,2 c 5.6,5.4 11.1,2 18.5,2.9 4.6,-1.6 -1.3,-10 5.9,-7.8 2.1,3.6 -0.4,9 3.9,11.7 -1.2,1.3 -2.9,1.3 -3.9,2.9 0.1,3.9 5,4.4 7.8,5.9 h 5.9 c -0.3,0.9 0.5,1.4 1,2 -16.9,6.1 -45.1,-6.6 -50.7,18.5 -4,-1.3 -6,3.6 -7.8,5.9 -3.7,-0.6 -6,-4.3 -9.8,-4.9 -0.7,16.2 7.5,31.1 15.6,44.9 -2.1,2.6 -4.8,4.3 -7.8,4.9 -10.2,-13.6 -14.2,-29.7 -20.5,-44.9 -4.7,3.1 0.8,8.5 -1,13.7 0.8,3.3 -1,4.8 -3.9,4.9 l -18.5,-3.9 c -9.5,5.1 -12.9,22.8 -26.3,18.5 -1.7,1 -2.4,4 -4.9,2.9 l -1,-1 c -6.6,2.6 -13.7,7 -21.5,3.9 -4,1 -9.3,-0.9 -11.7,3.9 -1.7,9.2 -0.6,19.4 -2.9,28.3 -4.6,-1.3 -9.2,1.6 -9.8,5.9 -0.8,6.8 1.3,12.4 2,18.5 l 7.8,-1.9 c 4.8,9.7 14.7,17.2 20.5,26.3 6.3,7.9 16.5,15.9 16.6,27.3 -2.3,0.6 -3.9,3.2 -5.9,4.9 -0.2,8.2 8.9,12.6 11.7,19.5 8.8,9.8 12,21.8 21.5,31.2 -3.6,24.9 10.4,42.4 6.8,67.3 -2.1,18.3 13.4,29.5 18.5,44.9 v 12.7 c -18.1,10.1 -33.1,-4.7 -46.8,-13.7 -11.1,-8.3 -5.3,-20 -6.8,-32.2 -7.6,-22.4 -12.4,-46.2 -18.5,-69.3 -6.3,-11.2 -21.1,-19.1 -25.4,-31.2 -10.3,-11.5 -18.1,-29.2 -34.2,-33.2 -3.7,1.2 -0.6,5.1 -2.9,6.8 -11.7,22.5 -20.5,46.3 -26.3,71.2 -8.6,15 -14.3,31.2 -21.5,46.8 -9.5,2.3 -21.3,-0.8 -30.2,2.9 0.7,8.8 7.1,17.6 2,26.3 -9.1,-0.7 -20.7,10.4 -27.3,-2 -12.9,-5.5 -11,-22.1 -16.6,-33.2 3.3,-15.1 16.9,-26.1 25.4,-39 6.1,-3.9 15,-3.4 18.5,-11.7 6.5,-34.7 17.4,-67.6 28.3,-100.5 0.8,-10 -10.1,-18.8 -2,-28.3 -1.2,-1.7 -3.4,-0.8 -4.9,-2 8.5,-31 15.4,-62.5 16.6,-96.6 10.1,-13.5 19.2,-29 33.2,-39 1.7,-0.3 3.9,0.8 4.9,-1 -1.6,-16.8 0.2,-36.4 17.6,-44.9 15.6,-8.4 37.3,-2 44.7,15 z" style="filter:url(#filter107)"/></g><g id="layer2" style="display:inline"><path style="clip-rule:evenodd;display:inline;fill:url(#radialGradient83);fill-rule:evenodd" id="path25" d="m 525.7,313.6 c 1.7,7.8 10.4,16.4 2.9,24.4 -2.8,4.3 -4.8,8.9 -3.9,14.6 13.2,9.1 16.6,-16.9 32.2,-7.8 3.6,-3.1 7.2,-6.1 12.7,-4.9 -1.2,15 15.6,7.1 23.4,10.7 7.6,-1.6 20.8,4.3 21.5,-7.8 1.6,0.5 3,1.3 4.9,1 0.9,4.1 -3,8.4 2.9,9.8 6.7,-1.7 15.4,4.1 16.6,-4.9 2.1,-0.5 4.2,1.2 4.9,1.9 l -2,2 c 5.6,5.4 11.1,2 18.5,2.9 4.6,-1.6 -1.3,-10 5.9,-7.8 2.1,3.6 -0.4,9 3.9,11.7 -1.2,1.3 -2.9,1.3 -3.9,2.9 0.1,3.9 5,4.4 7.8,5.9 h 5.9 c -0.3,0.9 0.5,1.4 1,2 -16.9,6.1 -45.1,-6.6 -50.7,18.5 -4,-1.3 -6,3.6 -7.8,5.9 -3.7,-0.6 -6,-4.3 -9.8,-4.9 -0.7,16.2 7.5,31.1 15.6,44.9 -2.1,2.6 -4.8,4.3 -7.8,4.9 -10.2,-13.6 -14.2,-29.7 -20.5,-44.9 -4.7,3.1 0.8,8.5 -1,13.7 0.8,3.3 -1,4.8 -3.9,4.9 l -18.5,-3.9 c -9.5,5.1 -12.9,22.8 -26.3,18.5 -1.7,1 -2.4,4 -4.9,2.9 l -1,-1 c -6.6,2.6 -13.7,7 -21.5,3.9 -4,1 -9.3,-0.9 -11.7,3.9 -1.7,9.2 -0.6,19.4 -2.9,28.3 -4.6,-1.3 -9.2,1.6 -9.8,5.9 -0.8,6.8 1.3,12.4 2,18.5 l 7.8,-1.9 c 4.8,9.7 14.7,17.2 20.5,26.3 6.3,7.9 16.5,15.9 16.6,27.3 -2.3,0.6 -3.9,3.2 -5.9,4.9 -0.2,8.2 8.9,12.6 11.7,19.5 8.8,9.8 12,21.8 21.5,31.2 -3.6,24.9 10.4,42.4 6.8,67.3 -2.1,18.3 13.4,29.5 18.5,44.9 v 12.7 c -18.1,10.1 -33.1,-4.7 -46.8,-13.7 -11.1,-8.3 -5.3,-20 -6.8,-32.2 -7.6,-22.4 -12.4,-46.2 -18.5,-69.3 -6.3,-11.2 -21.1,-19.1 -25.4,-31.2 -10.3,-11.5 -18.1,-29.2 -34.2,-33.2 -3.7,1.2 -0.6,5.1 -2.9,6.8 -11.7,22.5 -20.5,46.3 -26.3,71.2 -8.6,15 -14.3,31.2 -21.5,46.8 -9.5,2.3 -21.3,-0.8 -30.2,2.9 0.7,8.8 7.1,17.6 2,26.3 -9.1,-0.7 -20.7,10.4 -27.3,-2 -12.9,-5.5 -11,-22.1 -16.6,-33.2 3.3,-15.1 16.9,-26.1 25.4,-39 6.1,-3.9 15,-3.4 18.5,-11.7 6.5,-34.7 17.4,-67.6 28.3,-100.5 0.8,-10 -10.1,-18.8 -2,-28.3 -1.2,-1.7 -3.4,-0.8 -4.9,-2 8.5,-31 15.4,-62.5 16.6,-96.6 10.1,-13.5 19.2,-29 33.2,-39 1.7,-0.3 3.9,0.8 4.9,-1 -1.6,-16.8 0.2,-36.4 17.6,-44.9 15.6,-8.4 37.3,-2 44.7,15 z" class="st2"/></g></svg>