<svg xmlns="http://www.w3.org/2000/svg" xmlns:xlink="http://www.w3.org/1999/xlink" id="transmission" x="0" y="0" version="1.1" viewBox="0 0 1024 1024" xml:space="preserve" style="enable-background:new 0 0 1024 1024"><style type="text/css">.st0{fill:url(#SVGID_1_)}.st1{fill:#cdcdcd}.st2{fill:#1e1e1e}.st3{fill:url(#SVGID_2_)}.st4{fill:#767676}.st5{fill:#4f4f4f}.st6{fill:url(#SVGID_3_)}.st7{fill:url(#SVGID_4_)}.st8{fill:url(#SVGID_5_)}.st9{fill:url(#SVGID_6_)}.st10{fill:url(#SVGID_7_)}.st11{opacity:.5}.st12{fill:url(#SVGID_8_)}.st13{fill:#fff}.st14{fill:url(#SVGID_9_)}.st15{fill:url(#SVGID_10_)}.st16{fill:url(#SVGID_11_)}.st17{fill:url(#SVGID_12_)}.st18{fill:url(#SVGID_13_)}.st19{fill:#4e4e4e}.st20{fill:url(#SVGID_14_)}</style><g><linearGradient id="SVGID_1_" x1="261.277" x2="770.243" y1="709.234" y2="428.583" gradientUnits="userSpaceOnUse"><stop offset="0" style="stop-color:#707070"/><stop offset=".129" style="stop-color:#8d8d8d"/><stop offset=".408" style="stop-color:#d8d8d8"/><stop offset=".547" style="stop-color:#fff"/><stop offset=".722" style="stop-color:#c3c3c3"/><stop offset=".91" style="stop-color:#878787"/><stop offset="1" style="stop-color:#707070"/></linearGradient><path d="M864.8,709L464.6,931.8c-92.2,41.3-116.7-36.1-132-71L172.5,494.1c-15.3-34.9,0.8-72.1,36.7-90.8l357.1-157.2 c44.4-19.5,78.4-4.7,110.1,45.3l206.3,315.4C904.5,636.5,902.3,687.5,864.8,709z" class="st0"/></g><path d="M252.5,486.8c-4.9-10.6-15-24.9-10.5-34.6c3.6-7.9,10.6-12.8,19.1-16.7l311.4-144.7	c18.9-8.7,43.2,0.7,54.4,19.4l189.6,296.5c5.3,9.5,5,21,2.5,31.3c-2.8,11.2-14.3,23.5-23.1,27.9c16.6-8.3,26.3-36.6,15.3-56.1	L623.7,316c-11.1-18.5-35.1-27.9-53.8-19.3L262.5,439.6C243.8,448.2,243.8,467.8,252.5,486.8" class="st1"/><path d="M797,665.8L480.1,835c-6.6,3.5-13.6,6.4-20.8,8.2c-29.1,7.2-54.7-1.6-65.3-26L244.4,489.4	c-8.7-18.9-0.6-41.2,18.1-49.8l307.4-142.8c18.7-8.6,42.7,0.8,53.8,19.3l187.7,293.7C822.3,629.2,813.6,657.5,797,665.8z" class="st2"/><linearGradient id="SVGID_2_" x1="331.945" x2="704.632" y1="668.696" y2="464.676" gradientUnits="userSpaceOnUse"><stop offset="0" style="stop-color:#c8c6c8"/><stop offset=".182" style="stop-color:#dfdedf"/><stop offset=".414" style="stop-color:#f6f6f6"/><stop offset=".556" style="stop-color:#fff"/><stop offset=".558" style="stop-color:#fff"/><stop offset=".85" style="stop-color:#d7d6d7"/><stop offset="1" style="stop-color:#c8c6c8"/></linearGradient><path d="M790,669.8L478.9,835.5c-6.5,3.5-13.3,6.2-20.5,8c-28.5,7.2-53.6-1.3-63.8-25L249.6,500.8	c-8.4-18.3-0.4-40.1,17.9-48.5l308.1-143.1c18.3-8.4,34.3,1.8,45.1,19.8l183.6,286.3C814.9,634.1,806.3,661.6,790,669.8z" class="st3"/><path d="M394.7,818.5l-137.1-313c-8.3-18.1-0.2-39.6,18.2-48l299.7-136.6c18.3-8.4,34.2,1.6,44.9,19.2l184,275	L620.7,328.9c-10.8-17.9-26.7-28.2-45.1-19.8L267.5,452.3c-18.3,8.4-26.4,30.2-17.9,48.5L394.7,818.5" class="st4"/><path d="M889,683.8c-5.2,10.1-13.2,18.9-24.1,25.2L464.6,931.8c-92.2,41.3-116.7-36.1-132-71L172.5,494.1	c-5.1-11.7-6.7-23.7-5.2-35.1l181.6,424.3c0,0,32.6,84.8,124.5,33.5S889,683.8,889,683.8z" class="st1"/><path d="M190.4,416.3c5.4-4.9,11.7-9.3,18.8-13l357.1-157.2c44.4-19.5,78.4-4.7,110.1,45.3l206.3,315.4	c6,8.2,10.2,18,12.4,28.4L658.5,275.8c0,0-35.5-48.3-81.8-28.8C530.3,266.5,190.4,416.3,190.4,416.3z" class="st5"/><path d="M262.9,439.6c-18.7,8.6-33.4,32.5-24.7,51.4l153.3,335.5c10.5,24.5,36.2,33.3,65.3,26	c7.3-1.8,14.2-4.6,20.8-8.2l319.5-174.5c16.6-8.3,25.1-40.6,14.1-60.1h0.1c11,19.5,2.3,47.8-14.3,56.1L480.1,835	c-6.6,3.5-13.6,6.4-20.8,8.2c-29.1,7.2-54.7-1.6-65.3-26L244.4,489.4c-8.7-18.9-0.6-41.2,18.1-49.8" class="st5"/><g><linearGradient id="SVGID_3_" x1="559.078" x2="543.505" y1="492.852" y2="695.3" gradientUnits="userSpaceOnUse"><stop offset=".526" style="stop-color:#949494"/><stop offset=".62" style="stop-color:#8e8e8e"/><stop offset=".742" style="stop-color:#7e7e7e"/><stop offset=".878" style="stop-color:#646464"/><stop offset="1" style="stop-color:#464646"/></linearGradient><polygon points="449.8 544.8 504.4 645.5 505.1 655.7 470.7 672.5 620.7 715 657.4 584.3 615.1 602 549 501.9 549 499" class="st6"/><linearGradient id="SVGID_4_" x1="660.5" x2="615.333" y1="587.625" y2="587.625" gradientUnits="userSpaceOnUse"><stop offset="0" style="stop-color:#343636"/><stop offset=".26" style="stop-color:#373939"/><stop offset=".439" style="stop-color:#404242"/><stop offset=".594" style="stop-color:#4f5151"/><stop offset=".736" style="stop-color:#656666"/><stop offset=".867" style="stop-color:#818282"/><stop offset=".991" style="stop-color:#a3a3a3"/><stop offset="1" style="stop-color:#a6a6a6"/></linearGradient><polygon points="615.8 591.3 660.5 573.3 657.4 584.3 615.3 602" class="st7"/><linearGradient id="SVGID_5_" x1="549" x2="615.75" y1="548.916" y2="548.916" gradientUnits="userSpaceOnUse"><stop offset="0" style="stop-color:#343636"/><stop offset=".26" style="stop-color:#373939"/><stop offset=".439" style="stop-color:#404242"/><stop offset=".594" style="stop-color:#4f5151"/><stop offset=".736" style="stop-color:#656666"/><stop offset=".867" style="stop-color:#818282"/><stop offset=".991" style="stop-color:#a3a3a3"/><stop offset="1" style="stop-color:#a6a6a6"/></linearGradient><polygon points="549 499.1 556.4 495.8 615.8 591.3 615.3 602 549 501.9" class="st8"/><linearGradient id="SVGID_6_" x1="458.5" x2="505.167" y1="658.989" y2="658.989" gradientUnits="userSpaceOnUse"><stop offset="0" style="stop-color:#343636"/><stop offset=".26" style="stop-color:#373939"/><stop offset=".439" style="stop-color:#404242"/><stop offset=".594" style="stop-color:#4f5151"/><stop offset=".736" style="stop-color:#656666"/><stop offset=".867" style="stop-color:#818282"/><stop offset=".991" style="stop-color:#a3a3a3"/><stop offset="1" style="stop-color:#a6a6a6"/></linearGradient><polygon points="504.5 645.5 458.5 669 470.8 672.5 505.2 655.7" class="st9"/><polygon points="450 544.8 430.3 509.2 378.5 532.7 421 426.3 571.3 452 539.2 470"/><linearGradient id="SVGID_7_" x1="657.382" x2="554.8" y1="627.639" y2="627.639" gradientUnits="userSpaceOnUse"><stop offset="0" style="stop-color:#000"/><stop offset=".294" style="stop-color:#282828;stop-opacity:.9265"/><stop offset=".588" style="stop-color:#484848;stop-opacity:.853"/><stop offset=".833" style="stop-color:#5c5c5c;stop-opacity:.7917"/><stop offset="1" style="stop-color:#636363;stop-opacity:.75"/></linearGradient><path d="M554.8,550.3c0,0,41.9,84.8,18.6,151.2l47.3,13.4l36.7-130.7l-42,17.7l-40.6-61.7L554.8,550.3z" class="st10"/></g><polygon points="403.7 469.7 355 411.5 355 396 353.2 392.7 325.6 352 385.8 325.5 417.8 434.3" class="st11"/><g><linearGradient id="SVGID_8_" x1="528.046" x2="606.046" y1="61.674" y2="213.674" gradientUnits="userSpaceOnUse"><stop offset="0" style="stop-color:#bc1e1b"/><stop offset=".553" style="stop-color:#a61b19"/><stop offset=".631" style="stop-color:#991917"/><stop offset=".871" style="stop-color:#761311"/><stop offset="1" style="stop-color:#69110f"/></linearGradient><path d="M517.7,252c132.7-63.7,141.6-93.7,141.6-93.7c8-86-39-97-39-97c-127.7,4.3-165.1,27.6-165.1,27.6 S499.4,150.7,517.7,252z" class="st12"/><path d="M474.8,590.7L450,544.8l-4.7-8.6c0,0-29.6-128.3-71-225.5c0,0-58.6-134.1-52.3-180.8c0.9-4.8,5-6.7,13.7-10 c8.8-3.3,106.9-35.3,110.9-34.8s11.1,3.8,18,13.9S504,148,517,246.8s27.5,214.1,57.8,293.5L474.8,590.7z" class="st13"/><linearGradient id="SVGID_9_" x1="331.094" x2="480.094" y1="119.708" y2="591.708" gradientUnits="userSpaceOnUse"><stop offset=".534" style="stop-color:#aeaeae"/><stop offset=".595" style="stop-color:#a5a5a5"/><stop offset=".692" style="stop-color:#8e8e8e"/><stop offset=".814" style="stop-color:#686868"/><stop offset=".954" style="stop-color:#343434"/><stop offset="1" style="stop-color:#212121"/></linearGradient><path d="M474.8,590.7L450,544.8l-4.7-8.6c0,0-29.6-128.3-71-225.5c0,0-58.6-134.1-52.3-180.8c0.4-2.3,1.6-4,3.7-5.4 c0,0,34.5,12.4,65.5,112.4S471.7,557.9,474.8,590.7z" class="st14"/><linearGradient id="SVGID_10_" x1="330.723" x2="430.723" y1="134.048" y2="420.048" gradientUnits="userSpaceOnUse"><stop offset=".534" style="stop-color:#343636"/><stop offset=".658" style="stop-color:#424343"/><stop offset=".814" style="stop-color:#4d4d4d"/><stop offset="1" style="stop-color:#505050"/></linearGradient><path d="M411.2,412.8c-10.5-33.5-23.1-69.5-36.9-102.1c0,0-53.6-122.8-52.7-174.2c0,0,51.5,20.2,73.8,132.5 c0,0,17.4,70.8,17.9,113C413.3,399.5,411.2,412.8,411.2,412.8z" class="st15"/><linearGradient id="SVGID_11_" x1="398.933" x2="442.433" y1="97.163" y2="232.663" gradientUnits="userSpaceOnUse"><stop offset="0" style="stop-color:#6a6a6a"/><stop offset=".126" style="stop-color:#8e8e8e"/><stop offset=".422" style="stop-color:#ddd"/><stop offset=".559" style="stop-color:#fdfdfd"/><stop offset="1" style="stop-color:#fefefe"/></linearGradient><path d="M509.5,204.2c-15.2-67.8-39.1-96.7-44.9-105.2c-6.9-10.1-14-13.4-18-13.9S344.5,116.6,335.7,120 c-2.6,1-4.7,1.8-6.5,2.7c0,0,32.5,9.4,69.3,126.4L509.5,204.2z" class="st16"/><linearGradient id="SVGID_12_" x1="409.844" x2="573.401" y1="242.954" y2="549.839" gradientUnits="userSpaceOnUse"><stop offset="0" style="stop-color:#949494"/><stop offset=".055" style="stop-color:#7c7c7c"/><stop offset=".127" style="stop-color:#646464"/><stop offset=".203" style="stop-color:#525252"/><stop offset=".285" style="stop-color:#484848"/><stop offset=".384" style="stop-color:#454545"/><stop offset=".502" style="stop-color:#6a6a6a"/><stop offset=".69" style="stop-color:#adadad"/><stop offset=".765" style="stop-color:#a4a4a4"/><stop offset=".887" style="stop-color:#8c8c8c"/><stop offset="1" style="stop-color:#707070"/></linearGradient><path d="M474.8,590.7l99.9-50.4C544.5,460.9,530,345.5,517,246.8c-2.1-15.7-4.6-29.8-7.5-42.6l-111,44.8 C398.5,249,454.2,417.4,474.8,590.7z" class="st17"/><linearGradient id="SVGID_13_" x1="237.544" x2="313.545" y1="170.397" y2="343.397" gradientUnits="userSpaceOnUse"><stop offset="0" style="stop-color:#bc1e1b"/><stop offset=".553" style="stop-color:#a61b19"/><stop offset=".631" style="stop-color:#991917"/><stop offset=".871" style="stop-color:#761311"/><stop offset="1" style="stop-color:#69110f"/></linearGradient><path d="M393.7,301.7c0,0-62.3,38.3-183,50.3c0,0-42.4-63.1-51.4-103.8c0,0,73.1-72.4,165-107.3 C324.3,141,374,172,393.7,301.7z" class="st18"/></g><g><path d="M120.2,293.5c3.7,16.7,26.5,56.1,30.5,57.8c4,1.7,52-11.8,52-11.8c-11.9-19.1-33.8-56.4-41.9-85.3 C160.7,254.2,117.2,284.2,120.2,293.5z" class="st19"/><linearGradient id="SVGID_14_" x1="137.276" x2="179.89" y1="273.3" y2="347.11" gradientUnits="userSpaceOnUse"><stop offset=".074" style="stop-color:#a3a3a3"/><stop offset=".095" style="stop-color:#acacac"/><stop offset=".173" style="stop-color:#cacaca"/><stop offset=".257" style="stop-color:#e1e1e1"/><stop offset=".346" style="stop-color:#f1f1f1"/><stop offset=".445" style="stop-color:#fbfbfb"/><stop offset=".575" style="stop-color:#fefefe"/><stop offset=".6" style="stop-color:#e3e3e3"/><stop offset=".641" style="stop-color:#bbb"/><stop offset=".686" style="stop-color:#999"/><stop offset=".733" style="stop-color:#7d7d7d"/><stop offset=".784" style="stop-color:#676767"/><stop offset=".84" style="stop-color:#585858"/><stop offset=".905" style="stop-color:#4f4f4f"/><stop offset="1" style="stop-color:#4c4c4c"/></linearGradient><path d="M124.5,293.5c3.5,16.7,24.1,52.2,27.9,53.9c3.1,1.4,31.9-6,42.4-8.9c1.6-0.5,2.2-2.4,1.2-3.7 c-14.4-17.7-29.1-44.9-35.2-71.8c-0.3-1.5-2-2.1-3.3-1.3C148.9,267.3,122.1,285.7,124.5,293.5z" class="st20"/></g></svg>