<svg xmlns="http://www.w3.org/2000/svg" xmlns:xlink="http://www.w3.org/1999/xlink" id="winecfg" x="0" y="0" version="1.1" viewBox="0 0 1024 1024" xml:space="preserve" style="enable-background:new 0 0 1024 1024"><style type="text/css">.st0{fill:url(#SVGID_1_)}.st1{fill:#767272}.st2{fill:url(#SVGID_2_)}.st3{fill:url(#SVGID_3_)}.st4{fill:url(#SVGID_4_)}.st5{fill:url(#SVGID_5_)}.st6{fill:#a3a4a6}</style><g id="Circle"><radialGradient id="SVGID_1_" cx="534.994" cy="872.857" r="954.203" gradientTransform="matrix(1 0 0 1 0 -976)" gradientUnits="userSpaceOnUse"><stop offset="0" style="stop-color:#f6f6f6"/><stop offset="1" style="stop-color:#e5e5e5"/></radialGradient><circle cx="512" cy="512" r="447" class="st0"/></g><g><g><rect width="160.6" height="37.7" x="512" y="414.4" class="st1"/><rect width="122.9" height="37.7" x="512" y="487.7" class="st1"/><rect width="188.3" height="37.7" x="512" y="561.1" class="st1"/><rect width="30.7" height="37.7" x="708.2" y="561.1" class="st1"/><rect width="96.1" height="37.7" x="642.8" y="487.7" class="st1"/><rect width="58.5" height="37.7" x="680.5" y="414.4" class="st1"/><radialGradient id="SVGID_2_" cx="376.827" cy="763.695" r="96.449" gradientTransform="matrix(1 0 0 -1 0 1260)" gradientUnits="userSpaceOnUse"><stop offset="0" style="stop-color:#00fd15"/><stop offset="1" style="stop-color:#00bd0f"/></radialGradient><rect width="89.2" height="89.2" x="293.3" y="414.4" class="st2"/><radialGradient id="SVGID_3_" cx="389.581" cy="758.23" r="87.281" gradientTransform="matrix(1 0 0 -1 0 1260)" gradientUnits="userSpaceOnUse"><stop offset="0" style="stop-color:#ff9601"/><stop offset=".164" style="stop-color:#ff8701"/><stop offset=".722" style="stop-color:#ff5700"/><stop offset="1" style="stop-color:#ff4500"/></radialGradient><rect width="89.2" height="89.2" x="388.4" y="414.4" class="st3"/><radialGradient id="SVGID_4_" cx="390.188" cy="749.727" r="89.539" gradientTransform="matrix(1 0 0 -1 0 1260)" gradientUnits="userSpaceOnUse"><stop offset="0" style="stop-color:#fefd02"/><stop offset="1" style="stop-color:#fbd703"/></radialGradient><rect width="89.2" height="89.2" x="388.4" y="509.5" class="st4"/><radialGradient id="SVGID_5_" cx="379.56" cy="746.994" r="86.985" gradientTransform="matrix(1 0 0 -1 0 1260)" gradientUnits="userSpaceOnUse"><stop offset="0" style="stop-color:#09d4fb"/><stop offset="1" style="stop-color:#0490d0"/></radialGradient><rect width="89.2" height="89.2" x="293.3" y="509.5" class="st5"/></g><path d="M515.6,657.9c-9.1,0-16.5-7.4-16.5-16.5s7.4-16.5,16.5-16.5c9.1,0,16.5,7.4,16.5,16.5 C532,650.6,524.6,657.9,515.6,657.9z M515.6,626c-8.5,0-15.5,6.9-15.5,15.5c0,8.5,6.9,15.5,15.5,15.5c8.5,0,15.5-6.9,15.5-15.5 C531,632.9,524.1,626,515.6,626z" class="st6"/><path d="M594.7,657.9c-9.1,0-16.5-7.4-16.5-16.5s7.4-16.5,16.5-16.5s16.5,7.4,16.5,16.5 C611.2,650.6,603.8,657.9,594.7,657.9z M594.7,626c-8.5,0-15.5,6.9-15.5,15.5c0,8.5,6.9,15.5,15.5,15.5s15.5-6.9,15.5-15.5 S603.2,626,594.7,626z" class="st6"/><path d="M436.2,657.9c-9.1,0-16.5-7.4-16.5-16.5s7.4-16.5,16.5-16.5s16.5,7.4,16.5,16.5 C452.6,650.6,445.2,657.9,436.2,657.9z M436.2,626c-8.5,0-15.5,6.9-15.5,15.5c0,8.5,6.9,15.5,15.5,15.5s15.5-6.9,15.5-15.5 S444.7,626,436.2,626z" class="st6"/></g></svg>